<svg id="Layer_1" data-name="Layer 1" xmlns="http://www.w3.org/2000/svg" viewBox="0 0 140.95 252.38"><defs><style>.cls-1{fill:#13161c;}</style></defs><title>dollarsign</title><g id="Dollar_sign" data-name="Dollar sign"><path class="cls-1" d="M244.87,164.68c-2.55-.1-6-1.32-5.45-3.8,1.32-5.66-2.75-11-6.56-15.44a35.83,35.83,0,0,0-7.52-7.14c-8.38-5.28-20.72-1.93-25.9,6.52s-3,20.4,4.38,27c5.56,5,13.13,7,20.3,9.13,12.77,3.78,25.44,8.59,36.17,16.48s19.4,19.22,21.88,32.31a61.12,61.12,0,0,1,.73,14.43c-.66,13.23-3.83,26.63-11.29,37.56s-19.67,19.1-32.91,19.58c-4.6.17-5.94,6.44-5.28,11s1.42,10.33-2.49,12.77c-1.72,1.07-3.88,1.09-5.9,1.08l-19-.14a9.17,9.17,0,0,1-5-1c-3.23-2.07-2.61-6.86-2-10.64s0-8.95-3.8-9.61a64.32,64.32,0,0,1-53.21-64.12,5.42,5.42,0,0,1,.76-3.21c1-1.26,2.77-1.45,4.36-1.53l30-1.47c4.42-.22,10.35.78,10.78,5.18.8,8.21,4.1,16.35,10.07,22.05s14.75,8.66,22.77,6.73S235.58,259.25,236,251c.34-7.35-4-14.16-9.34-19.26-10.91-10.51-25.69-15.71-39.42-22.11s-27.64-15.22-33.32-29.27a46.75,46.75,0,0,1-2.85-20c1.46-27.74,21.4-53.57,47.86-62,3.74-1.19,4-6.36,3.12-10.18s-1.8-8.56,1.23-11a9.44,9.44,0,0,1,4.33-1.63,100.45,100.45,0,0,1,17.82-1.72,12.52,12.52,0,0,1,5.54.87c4.86,2.35,5,9.11,4.5,14.48s0,12.22,5,14.19c23.55,9.26,39.62,34.77,37.82,60-.15,2-2.82,2.48-4.8,2.4l-28.57-1.07m-17.06,148.6c-.87-4.3-1.73-8.81-.51-13s5.27-8,9.61-7.26c6.22,1,12.35-2.31,17.17-6.36a53.38,53.38,0,0,0-.79-82.42c-13.48-10.88-31.25-14.53-46.84-22.09-10.06-4.89-20.2-13-21-24.13a23.43,23.43,0,0,1,1.23-8.94c4.23-12.87,18.18-21.77,31.63-20.19s25,13.47,26.1,27c.23,2.72,3.77,3.53,6.5,3.62l16.55.55c1.2,0,2.54,0,3.4-.81s.91-2.5.73-3.84a67.08,67.08,0,0,0-14.33-33.24c-5.65-7-14.11-13.14-22.88-11.31-3,.63-4.43-3.55-4.54-6.62l-.66-17.28c-.09-2.23-.39-4.85-2.32-6a6.7,6.7,0,0,0-2.51-.69c-3.1-.43-6.33-.84-9.3.16s-5.54,3.88-5.1,7l2.1,14.68c.19,1.26,0,3-1.26,3.18-17.57,1.94-34.47,11.67-43.59,26.81s-9.57,35.53.21,50.25c16.45,24.77,54.41,27.79,70.66,52.69a30,30,0,0,1,4.74,11.58c1.7,10.74-5,21.92-14.77,26.61s-22,3.25-31.13-2.6-15.43-15.64-18.19-26.16c-1-3.86-6.28-4.23-10.24-3.78l-18.83,2.13c5.37,10.86,7.23,23.37,13.88,33.49a41.93,41.93,0,0,0,40,18.07c2.83-.4,4.22,3.29,4.58,6.13l1.85,14.63a5.93,5.93,0,0,0,1,3,5.79,5.79,0,0,0,3.61,1.56c2.88.52,5.9,1,8.69.14S228.38,316.15,227.81,313.28Z" transform="translate(-142.07 -73.81)"/></g></svg>