<svg id="EdNC_stamp_purple" data-name="EdNC stamp purple" xmlns="http://www.w3.org/2000/svg" viewBox="0 0 294.7 96.13"><defs><style>.cls-1{fill:#731454;}</style></defs><title>EdNC-logo</title><g id="EdNC_Smooth" data-name="EdNC Smooth"><path class="cls-1" d="M77.62,192.46c.34.59,1.16.63,1.84.59l22.12-1.21c2.32-.13,5.22.08,6.12,2.22a5.75,5.75,0,0,1,.19,2.77l-.82,8.72a3,3,0,0,1-.51,1.66,1,1,0,0,1-1.53.1c-1-1.49-3.18-1.62-5-1.59q-10,.18-20,.81a2.1,2.1,0,0,0-1.41.45,2.14,2.14,0,0,0-.38,1.43q-.13,9.83-.28,19.64a8,8,0,0,0,.46,3.49,2.78,2.78,0,0,0,2.78,1.77,119.37,119.37,0,0,1,26.43-1.44c1.28.07,1.89-1.56,1.94-2.84s.14-2.88,1.31-3.39a3.09,3.09,0,0,1,1.35-.17l5,.13c1,0,2.14.16,2.57,1a2.71,2.71,0,0,1,.16,1.33l-.84,17.3a3.14,3.14,0,0,1-.78,2.35,3.21,3.21,0,0,1-2.35.4,378.09,378.09,0,0,0-54-1.15c-2.58.13-4.84-2.4-4.79-5a6.4,6.4,0,0,1,4.55-5.65,3,3,0,0,0,1.44-.69,2.49,2.49,0,0,0,.42-1.64q.69-32.65,1.39-65.32l-11-.89a1.58,1.58,0,0,1-.86-.23c-.45-.31-.47-1-.46-1.5l.17-5.73a3.65,3.65,0,0,1,.37-1.79c.63-1,2-1.14,3.22-1.16l54.37-.66c1.26,0,2.67,0,3.57.93a4.76,4.76,0,0,1,1,3.08,113.87,113.87,0,0,1,.17,13.45,3.24,3.24,0,0,1-.57,2,2.69,2.69,0,0,1-1.15.68,7.36,7.36,0,0,1-9.25-5.45c-.11-.66-1-.85-1.62-.9a182.1,182.1,0,0,0-22.53-.27,2.66,2.66,0,0,0-3,3.4l.06,17.94a1.82,1.82,0,0,0,.17.93m9.11,7.2,4.09-3.86a3.72,3.72,0,0,0-4.09,3.86m-15.15,35a8.64,8.64,0,0,0,3-4.86,6,6,0,0,0-3,4.86m34.16-71.74,1.14-1.45c.18-.22.36-.55.19-.78s-.54-.14-.79,0a3.63,3.63,0,0,0-1.81,3.51,2.33,2.33,0,0,0,1.26-1.3M72.4,207.37a4.4,4.4,0,0,1,1.14-1.71c-.14-.62-1.09-.23-1.46.27a14.26,14.26,0,0,0-1.72,3,1.88,1.88,0,0,0,1.87-1.56M98.9,237.79c1.07-.37,2.13-.77,3.17-1.21a2.93,2.93,0,0,0-3.91.88.62.62,0,0,0,.74.33m15.45.42a3.09,3.09,0,0,0-1.2,1,1.05,1.05,0,0,0,.2,1.4c.07-.53.61-.86,1.08-1.13s1-.67.95-1.21-1-.7-1-.16m-45-47.78a2,2,0,0,0-.68,1.78,3.15,3.15,0,0,0,2.15-2.53.67.67,0,0,0-.61-.4,2.76,2.76,0,0,0-.87,1.13M57,165.18l1.64-.32a2.25,2.25,0,0,0-3.23-.14,1,1,0,0,0,1.52.48m12.48,58.48a.82.82,0,0,0,0,1.36A9.34,9.34,0,0,0,71.25,222a2.22,2.22,0,0,0-1.8,1.65m27.49,20.06,1.43-.72a3.15,3.15,0,0,0-3.69.54,5.1,5.1,0,0,0,2.26.19m18.73-8.49.3-.85a.7.7,0,0,0-.63-.37,2.43,2.43,0,0,0-1,1.16c-.14.49.17,1.13.67,1.13l.76-1M74.87,161.92a2.42,2.42,0,0,0-1.26,2.32,4,4,0,0,0,2-1.94,1.11,1.11,0,0,0-.72-.43m-.93,17.79c-.5.24-.21,1.18.33,1.1a1.51,1.51,0,0,0,.67-2l-1.1.72m39.07-12.89v-1.41a.9.9,0,1,0,.16,1.62M77.89,242.17A3.05,3.05,0,0,0,79.53,240a2.48,2.48,0,0,0-1.69,2.13m32.05-81.69a1,1,0,0,0,1.78-.16,1.2,1.2,0,0,0-1.92.12m-14.26-.18c-.72-.16-1.78-.1-1.85.64a2.47,2.47,0,0,0,1.28.2c.42-.09.81-.52.68-.93M74.13,237.82a2.13,2.13,0,0,0-.92,1.22,1.48,1.48,0,0,0,1.69-1.25c-.08-.33-.68-.3-.74,0M68.7,178.1c0-.41-.61-.58-.91-.3a1.29,1.29,0,0,0-.26,1.15,1,1,0,0,0,.71.14l.43-1m-.17,5.4-.46-.94c-.43.14-.84.58-.72,1s1,.43.93,0m5.73-.72a1.13,1.13,0,0,0-.43.72,1.07,1.07,0,0,0,.71.42,1,1,0,0,0,.43-1,1,1,0,0,0-.71-.13m-7.33,27.69a.58.58,0,0,0,.16,1l1-.66a.88.88,0,0,0-1.17-.36m7.19-10a.44.44,0,0,0,.14-.72,1.31,1.31,0,0,0-1,1.34.62.62,0,0,0,.87-.59M75,212c-.36.1-.1.73.27.7s.62-.38.8-.7a.58.58,0,0,0-1,0M55.61,160.76a.6.6,0,0,0-.3.84,1,1,0,0,0,.67-.37c.12-.24-.14-.6-.36-.46m11.59,45.17c.07-.32-.1-.83-.38-.66s.06.95.42.68Z" transform="translate(-52.65 -151.94)"/><path class="cls-1" d="M192.82,237.39a3.65,3.65,0,0,1,.05-2.38c.62-1.21,2.26-1.33,3.61-1.35a9,9,0,0,0,4-.75,3.57,3.57,0,0,0,2.07-3.26q-2.67-31.14-2.93-62.41c0-1-1.12-1.68-2.13-1.82a13.79,13.79,0,0,1-3-.32c-2.65-1-2.47-4.77-1.79-7.52a3,3,0,0,1,3.54-2.69l19-1.45c.66-.05,1.18.53,1.58,1.06,15.29,20.25,25.57,43.83,39.84,64.8a503,503,0,0,1-.14-52.53c0-.87-1-1.42-1.89-1.33a22.13,22.13,0,0,0-2.51.79c-2.4.54-4.79-1.43-5.59-3.76s-.44-4.87-.06-7.3c.26-1.68,2.43-2.14,4.13-2.21l23.78-1a4.89,4.89,0,0,1,3.52.77c1.82,1.63.31,4.79,1.29,7s-1.85,4-4.15,4.31-5.15.39-6.18,2.47a5.75,5.75,0,0,0-.39,2.64q.24,34.34,1.62,68.64c.06,1.49.22,3.18,1.4,4.1-4.82,2.45-10.56,1.82-15.92,1.12A3.67,3.67,0,0,1,253,242a4.32,4.32,0,0,1-.58-1.48,28,28,0,0,0-3.88-7.57q-17.94-27.71-34.6-56.22a342.36,342.36,0,0,0,.35,53.68c.14,1.66,2,2.65,3.67,2.79s3.39-.2,5,.26,3.06,2.24,2.3,3.73c-1.39,2.71,1.32,6.52-.65,8.84-1.11,1.31-3.09,1.3-4.81,1.19l-23.36-1.59a2.75,2.75,0,0,1-1.67-.51,2.69,2.69,0,0,1-.63-1.46l-1.27-6.24m59.77-19.83a1.11,1.11,0,0,0-1.38,0,3.25,3.25,0,0,0-.9,1.17L247.93,223c.12.54.95.14,1.26-.33l3.4-5.14m8.64-61.08c-.27-.67-1.29-.27-1.81.24a43.9,43.9,0,0,0-4.48,5c.28.38.86.06,1.2-.26l5.09-4.94m4,7.35c-.82-.32-1.62.49-2.08,1.24a20.23,20.23,0,0,0-1.71,3.5c.18.38.75,0,1-.33l2.82-4.41m-21.63,43.8c.31-.41.61-1,.24-1.38a24.1,24.1,0,0,0-3.8,4.57c.08.57,1,.22,1.31-.24l2.25-3M248.27,219l2.19-3.26a.61.61,0,0,0-.25-1.05l-2,2.69c-.38.52-.62,1.47,0,1.62m-34.84-56.84a.8.8,0,0,0,.09-.5.45.45,0,0,0-.28-.33,19.37,19.37,0,0,0-2.8,4,6.34,6.34,0,0,0,3-3.2m18.32,21.4.63-.7a2.16,2.16,0,0,0-2.85,2.29,9.9,9.9,0,0,0,2.14-1.66m16.24,27.68c-.27-.32-.77,0-1,.31-.7.78-1.39,2.06-.59,2.75l1.49-2.18c.18-.27.36-.64.15-.88m-41.64,16.9a4,4,0,0,0,1.72-3.88,5.41,5.41,0,0,0-1.72,3.88m59.42-9.68a1.71,1.71,0,0,0-.63,2.06A2.48,2.48,0,0,0,266.8,218a.77.77,0,0,0-1.14.31m-28-24,.93.88a1.87,1.87,0,0,0-.7-2.22,1.28,1.28,0,0,0-1.55.36l1.29,1m-20.43,43.83,1.41-1.1c.36-.29.12-1-.33-1.07a1.06,1.06,0,0,0-1.12.64,3.25,3.25,0,0,0-.22,1.36m-7.22-18a1.5,1.5,0,0,0,.36,1.57,1.77,1.77,0,0,0,.3-2.63l-.72,1m30.42-20.17a4.77,4.77,0,1,0-.19.25m26.27-6.9a.66.66,0,0,0-.05-1.12,2.35,2.35,0,0,0-.9.87.81.81,0,0,0,.3,1.09l.72-.72M208.68,168a2.84,2.84,0,0,0,1.51-2,1.94,1.94,0,0,0-1.63,2m-4.7,36.19c-.76.45-.68,1.85.17,2a2.25,2.25,0,0,0-.07-1.93m38.58,15.46a1.06,1.06,0,0,0,.67-1.37.77.77,0,0,0-1.07.24.76.76,0,0,0,.4,1m25-59.37a.66.66,0,0,0-.32-.87l-1,1a.75.75,0,0,0,1.24-.17m-30.36,31a.76.76,0,0,0-1.25.13.7.7,0,0,0,1.3-.13M215.53,166.9c0-.28-.44-.36-.66-.18a1.2,1.2,0,0,0-.32.76.59.59,0,0,0,.82-.6m1.62,9.64a.63.63,0,0,0-.32-.85.92.92,0,0,0-.41.69.45.45,0,0,0,.71.16m43.88,62.55c-.24.38.5.84.73.45s-.35-.47-.69-.39m-2.14-64.48c-.17.13.12.41.3.3a.64.64,0,0,0,.21-.58c-.14-.25-.62,0-.49.26Z" transform="translate(-52.65 -151.94)"/><path class="cls-1" d="M134.93,240.94a29,29,0,0,1-8.86-15.23,50.44,50.44,0,0,1-.68-17.8c.75-6.33,2.32-12.73,5.91-18a26.59,26.59,0,0,1,35.91-7.69l.69-8.8a16.65,16.65,0,0,0-.22-5.81,5.65,5.65,0,0,0-3.78-4.11c-2.71-.66-3-4.36-2.68-7.13a3.32,3.32,0,0,1,.56-1.78,3.38,3.38,0,0,1,2.51-.85l13-.66a3.28,3.28,0,0,1,1.65.2c1.28.64,1.18,2.46,1,3.88-1,6.15-.87,12.42-.75,18.66l1.09,53.58c0,1.81.6,4.19,2.41,4.27,4.58.19,7.29,5.38,7.66,10a3.18,3.18,0,0,1-.09,1.27c-.58,1.62-2.91,1.34-4.58.94a21.68,21.68,0,0,0-7.78-.43c-2,.26-4,.78-5.93.15s-3.35-3.06-2.14-4.66c.53-.7-.37-1.74-1.25-1.69a3.93,3.93,0,0,0-2.22,1.3c-8.45,7.69-22.69,7.89-31.36.45m32.77-45.36c-4.86-3.22-10.68-6.33-16.27-4.64s-8.83,7.73-10.08,13.48a31.4,31.4,0,0,0,.67,16.74A18.25,18.25,0,0,0,147,229a11.45,11.45,0,0,0,8.62,3c4.72-.52,8.29-4.38,11.3-8.07a4.08,4.08,0,0,0,1.19-2.36q.27-11.53.55-23.07c0-1.06,0-2.32-.93-2.91M160,235a.94.94,0,0,0-1.21.05,3.5,3.5,0,0,0-.76,1.09,7.63,7.63,0,0,1-3,2.92c-.19.48.7.52,1.12.21A13.88,13.88,0,0,0,160,235m-29.76-27.7a1,1,0,0,0-1.52.06,3,3,0,0,0-.56,1.63l-.28,2.15a8.71,8.71,0,0,0,2.36-3.84m23.27-22.64a1.73,1.73,0,0,0,.15-.92.89.89,0,0,0-.39-.55,3.07,3.07,0,0,0-.89,4.09,26.51,26.51,0,0,0,1.13-2.62m20.4,38.67a1.47,1.47,0,0,0,0,.75.92.92,0,0,0,.28.42,5,5,0,0,0,1.15-4.2,6.64,6.64,0,0,0-1.43,3m3.6-6.43-.06-1a3,3,0,0,0-1.55,3.25,3.23,3.23,0,0,0,1.57-2.27m6.8,23.08c.47.5,1.34-.31,1.12-1s-.93-1-1.57-1.19a2.5,2.5,0,0,0,.62,2m-50.63-47.51a2.29,2.29,0,0,0-1.64,2.61,2.62,2.62,0,0,0,1.64-2.61m-5.32,22.13a1.42,1.42,0,0,0-.49-1.14,2.09,2.09,0,0,0,0,2.59.92.92,0,0,0,.51-1.44m39.54-27.21a1.91,1.91,0,0,0-1.13,2.27,1.64,1.64,0,0,0,1.21-2.05m8.76,25.65a1.1,1.1,0,0,0,.17-1.81,2.5,2.5,0,0,0-1,1.86.77.77,0,0,0,.9,0m-47.17-8.41a1.26,1.26,0,0,0-.05-1.8,2,2,0,0,0-.83,1.31c0,.53.68,1,1,.64m46.45,2.52a2.16,2.16,0,0,0-.32,1.42,1,1,0,0,0,.71.13,2.51,2.51,0,0,0,.43-1.86.55.55,0,0,0-.81.31m-.2-45.76c.92,0,1.3-1.44.61-2.06a1.83,1.83,0,0,0-.64,2m-36.83,25.12a.55.55,0,0,0,.69.7l.72-1.29a1.21,1.21,0,0,0-.74-.44l-.7,1m3.9-2.48a1.49,1.49,0,0,0,1.58-.38,1.82,1.82,0,0,0-1.37-.5c-.48.11-.74.9-.28,1.1m10.41,51.29a.52.52,0,0,0,0,1,1.46,1.46,0,0,0,1.35-.92l-1.35-.15m-11.2-6.8a1.14,1.14,0,0,0-1,1.67,1.9,1.9,0,0,0,1.11-1.72m-5.28-35.29a1.07,1.07,0,0,0-.35,1.1,3.24,3.24,0,0,0,1.26-2.57,3,3,0,0,0-1,1.44m-8.27,26.2c.41-.23.11-1-.34-.9a1,1,0,0,0,0,1.68,1.07,1.07,0,0,0,.42-.71m30.85-35.6a1,1,0,0,0,1-1.17c-.56-.41-1.43.48-1,1m11.63-14.5a1,1,0,0,0-.71-.42.83.83,0,0,0,0,1.4,1.85,1.85,0,0,0,.73-1m-28.27,23.45a1.91,1.91,0,0,0,1-.77.7.7,0,1,0-1.1.85m-5.34,3.93a.79.79,0,0,0-.31,1.13c.39-.13.83-.3,1-.69s-.48-.83-.69-.49m38.19-31.59a.63.63,0,0,0,.31.85.91.91,0,0,0,.42-1,.46.46,0,0,0-.69.16m-7.35-1.58c.29.26.79-.27.52-.54a.42.42,0,0,0-.66-.13.42.42,0,0,0,.15.66Z" transform="translate(-52.65 -151.94)"/><path class="cls-1" d="M329.9,230.88A9.89,9.89,0,0,0,337.16,220c-.27-1.58,1-3.09,2.55-3.63a10.51,10.51,0,0,1,4.77-.14,2.64,2.64,0,0,1,2.87,3.27l-.06,18c0,1.93-.45,4.41-2.35,4.74l-9.82,1.73c-3.29.58-6.58,1.16-9.9,1.43a49.6,49.6,0,0,1-33.87-9.53c-9.54-7.29-16-18.7-16.59-30.68a56.1,56.1,0,0,1,.47-9.69c1.38-11.2,4.9-22.66,12.9-30.62,5.94-5.91,14-9.44,22.21-10.91s16.74-1,25,.36c3.26.52,6.57,1.2,9.36,3a2.34,2.34,0,0,1,.87.81,2.66,2.66,0,0,1,.18,1.37l-1,17.08a3.72,3.72,0,0,1-.91,2.7c-1.88,1.6-4.9-1.53-7.09-.38-1.53.81-3.3-1-3.48-2.68s.53-3.43.5-5.16a7.83,7.83,0,0,0-4-6.34,14.94,14.94,0,0,0-7.53-1.8c-9.43-.12-18.6,4.75-24.51,12.1s-8.67,17-8.51,26.39c.13,7.43,2.25,15.25,7.73,20.27,3.35,3.08,7.67,4.87,12,6.3a55.33,55.33,0,0,0,17.51,3.28,15,15,0,0,0,3.4-.31m-50.08-41.56c-.81,1-1.73,2.33-1,3.39q5.08-7.47,10.15-15c.27-.4.54-.94.25-1.32-.46-.62-1.39.11-1.76.79l-1.35,2.39a64.2,64.2,0,0,1-6.26,9.7m9.21-9.58c-.27.42-.48,1.11,0,1.33l10.64-13.32c-.5-.25-1.05.17-1.44.57A74.14,74.14,0,0,0,289,179.74m42.49,59.12a5.38,5.38,0,0,0-3.73.17c-.6.26-1.23.79-1.12,1.44a14.68,14.68,0,0,0,4.85-1.61m-37.2-70.69a1.08,1.08,0,0,0,.22-.61.59.59,0,0,0-.32-.49c-1.35,1.24-2.77,2.6-3.16,4.4a10.18,10.18,0,0,0,3.26-3.3m46.69,5a2.5,2.5,0,0,0-1.61,2.31,4.41,4.41,0,0,0,2.55-2,.91.91,0,0,0-1-.39m-34.52,58.42a7.54,7.54,0,0,0-.92,2.61,7.89,7.89,0,0,0,2.24-2.91c-.09-.59-1-.21-1.32.3M286,187l.85-1.63a2.38,2.38,0,0,0-2.21,2.57,1.81,1.81,0,0,0,1.31-1m8.92,44.81c.07-.58.08-1.32-.44-1.59a2.84,2.84,0,0,0,.36,3.56,3.32,3.32,0,0,0,.06-2m-15.75-35.34a.71.71,0,0,0,.13-1,2.08,2.08,0,0,0-1.1,2.71,3.33,3.33,0,0,0,.94-1.67m6.15-19a2.07,2.07,0,0,0-1.44,2.27,2.54,2.54,0,0,0,1.62-2.05m-3.35,20.9a2.85,2.85,0,0,0,.31-2.65,3.6,3.6,0,0,0-.94,2.57l.68.17m57.05,22.22a1.12,1.12,0,0,0,.4,1.29,2.09,2.09,0,0,0,.67-2.21.85.85,0,0,0-1,.89M309,232.35v.92a1.24,1.24,0,0,0,1.39-1.52,1,1,0,0,0-1.29.62M277.4,201.05v.89l.66.11c.39-.7.59-1.89-.2-2.05a1.19,1.19,0,0,0-.46,1.05m3.87,1.84a2,2,0,0,0,.95-2,1.72,1.72,0,0,0-1.2,2.2m3-9.42a1.92,1.92,0,0,0,1.1-1.54c-.8-.37-1.74.83-1.19,1.52m58.2-30.2a1,1,0,0,0,.9-1.26,1.68,1.68,0,0,0-1.09.42c-.27.3-.2.89.19,1m1.28,65a1.89,1.89,0,1,0,.08-.19m-41.28-68c.55.08,1.36-.12,1.25-.67a.84.84,0,0,0-1.34.71M342,168.87c-.35.12-.07.74.3.71s.62-.39.81-.71a1.24,1.24,0,0,0-1.14,0M331.26,162c-.24.5.61,1,1,.61,0-.43-.53-.82-.86-.55m-30.87-1a.59.59,0,0,0,.29-.85,1.68,1.68,0,0,0-1,.75.47.47,0,0,0,.72.16m35.54,14.35a1.56,1.56,0,0,0,.63.86.53.53,0,1,0-.59-.87Z" transform="translate(-52.65 -151.94)"/></g></svg>
