<svg id="Layer_1" data-name="Layer 1" xmlns="http://www.w3.org/2000/svg" viewBox="0 0 290.11 190.19"><defs><style>.cls-1{fill:#13161c;}</style></defs><title>email</title><g id="Email"><path class="cls-1" d="M60.67,281.56c-4-3.61-5.91-8.87-7.42-14a138.24,138.24,0,0,1-4.58-22.13c-1.59-13-1.3-26.22-1-39.35q.93-41.91,1.87-83.83c.12-5.21.54-11.09,4.52-14.44,3.3-2.79,8-2.91,12.33-2.91l241.51.53c7.51,0,15.69.27,21.45,5.07,7.13,6,7.86,16.44,8,25.72q1,72.9-2.62,145.75c-.43,8.65-10.68,13.53-19.33,13.1s-16.93-4.15-25.59-4.22L103,289.32c-9.46-.08-19-.16-28.27-1.85-5.06-.92-10.25-2.43-14-5.91m7.85-169.73c-1.12,0-2.68,1.15-1.75,1.78,23.36,15.87,40.53,39.05,58.61,60.74s38.49,43,65,52.78c4.91,1.82,10-1.78,14-5.19,31.88-27.32,61.71-56.93,91.51-86.5l18.32-18.2c.86-.85,1.78-2,1.25-3.12s-1.76-1.1-2.83-1.11l-43.18-.31c-67-.47-133.95-.94-200.93-.87m161.75,97.41c-6.26,8.57-12.69,17.3-21.4,23.35s-20.3,9-30.1,5c-6.3-2.6-11.15-7.72-15.8-12.7l-19.6-21c-1.13-1.22-3.1,0-4.24,1.25l-64.64,69c-.78.82-1.53,2.23-.63,2.92,6.58-2.4,13.84-1.13,20.75-.06,27.43,4.25,55.28,4.93,83,5.44q65.82,1.19,131.65,1.06a410.59,410.59,0,0,1-51.19-51.2c-7.86-9.39-16.08-19.66-27.83-23.06m11.24-8.66c25.52,25.15,44.4,57.38,74,77.55,1.83,1.25,3.82,2.49,6,2.52s4.59-1.68,4.46-3.89c-3-50.91,8.73-102.34.89-152.73a1.79,1.79,0,0,0-.31-.89c-.66-.79-1.89,0-2.56.79a358.39,358.39,0,0,1-51.75,49c-10.94,8.47-22.56,16.49-30.79,27.61M65.08,272.88l69.69-76.71q-34-37.09-68.69-73.61c-.88-.93-2.08-1.94-3.28-1.52s-1.51,1.94-1.62,3.21A824.65,824.65,0,0,0,59.81,258c.38,5.41,1.11,11.42,5.27,14.91m16.28,9.17a1.73,1.73,0,1,0,3.33.41l-2.87-.29M239.73,208c.76-.25.72-1.46.1-2a3.38,3.38,0,0,0-2.29-.5,4,4,0,0,0,2.23,2.23Z" transform="translate(-47.44 -104.9)"/></g></svg>