<svg id="Layer_1" data-name="Layer 1" xmlns="http://www.w3.org/2000/svg" viewBox="0 0 23.56 22.45"><defs><style>.cls-1{fill:#13161b;}</style></defs><title>fb-icon</title><g id="Facebook"><path class="cls-1" d="M17.5,8.05c0-.23-.28-.35-.51-.36a3.48,3.48,0,0,0-3.51,3.79c.07.55,0,1.41-.55,1.27a1.86,1.86,0,0,0-1.74.3,1.08,1.08,0,0,0,0,1.61c.76.56,2.24-.21,2.61.67a1.29,1.29,0,0,1,0,.62l-.61,6.73a.7.7,0,0,1-.09.32.65.65,0,0,1-.53.19l-8.2.3a3.22,3.22,0,0,1-1.6-.21,3,3,0,0,1-1.3-2c-1-3.6-.72-7.41-.44-11.13l.48-6.51a3.38,3.38,0,0,1,.33-1.48C2.51,1,4.08,1,5.35,1.12a118.65,118.65,0,0,0,15.32.27c1.09-.06,2.42,0,3,.94a3,3,0,0,1,.29,1.36,76.33,76.33,0,0,1-.18,10,15.15,15.15,0,0,0,0,4.41,17.62,17.62,0,0,1,.57,2.57,2.25,2.25,0,0,1-1.09,2.22,3.09,3.09,0,0,1-1,.19l-4,.36a4.6,4.6,0,0,1-1.85-.08A1.56,1.56,0,0,1,15.35,22l0-6.38a1.67,1.67,0,0,1,.44-1.37c.4-.29,1-.18,1.42-.37s.49-1.09,0-1c-1.17.22-2.2-1.11-2-2.29A3.7,3.7,0,0,1,17.5,8.05m1.65-.58a2,2,0,0,1-2,2.39c-.45,0-.56.71-.24,1a3.53,3.53,0,0,0,1.22.58,2.14,2.14,0,0,1-.42,4,1.17,1.17,0,0,0-.51.19.84.84,0,0,0-.19.44,16.59,16.59,0,0,0-.26,5.35.51.51,0,0,0,.15.36.52.52,0,0,0,.37.07l4-.26a.85.85,0,0,0,.56-.19.77.77,0,0,0,.16-.52A129,129,0,0,0,22,5.46a2.48,2.48,0,0,0-.15-.82c-.34-.72-1.26-.88-2-1a83.58,83.58,0,0,0-14.14-.5C4.44,3.28,2.9,3.77,2.88,5c-.08,5.11,0,10.24.14,15.35,0,.37.15.87.52.85a31.54,31.54,0,0,1,8.61.8l.22-4.58c0-.61-.3-1.51-.87-1.26a1.55,1.55,0,0,1-1.86-.91A4.54,4.54,0,0,1,9.44,13a1.47,1.47,0,0,1,.27-.9c.34-.38.93-.32,1.44-.31s1.14-.19,1.18-.69a5.53,5.53,0,0,1,3.25-4.56C16.85,6,18.71,6.16,19.15,7.47Z" transform="translate(-0.8 -1.07)"/></g></svg>