<svg id="Stamp_purple" data-name="Stamp purple" xmlns="http://www.w3.org/2000/svg" viewBox="0 0 362.38 51.48"><defs><style>.cls-1{fill:#731454;}</style></defs><title>FirstVoteNC-stamp-purple</title><g id="Shape_95" data-name="Shape 95"><path class="cls-1" d="M344.84,204.18c.12,2.22.21,4.27.37,6.32s-1.31,3.47-3.56,3.64a20.11,20.11,0,0,1-3.2,0,3.37,3.37,0,0,1-2.88-1.79c-1.77-3.26-4.46-5.78-6.89-8.52-3.16-3.57-6.15-7.3-9.22-11a7,7,0,0,0-.87-.75,4.57,4.57,0,0,0-.45,1.4c.08,5.47.18,10.95.35,16.41.09,3.07-.61,4.89-4.64,5.3-3.53.36-4.6-.59-4.65-4.21-.07-4.4-.17-8.8-.37-13.2-.1-2.24-.62-4.47-.65-6.71-.05-3,.26-6.07.29-9.11,0-1.85-.29-3.7-.31-5.55a25.84,25.84,0,0,1,.38-4.3,1.34,1.34,0,0,1,1.1-.72,56,56,0,0,1,6.32,1.08c.57.15,1,1,1.44,1.56,2.23,2.81,4.43,5.65,6.69,8.44,3.21,4,6.47,7.89,9.71,11.82a3.62,3.62,0,0,0,.6.5c.16-.23.44-.47.44-.7,0-2.63.07-5.27,0-7.9-.07-3.33-.27-6.66-.33-10-.06-2.93.83-3.78,3.73-3.78a29.29,29.29,0,0,0,3.38,0c2.28-.27,3.69,1,3.57,3.81s-.34,5.72-.33,8.58c0,3.86.28,7.73.3,11.6C345.19,199,345,201.48,344.84,204.18Z" transform="translate(-19.49 -164.7)"/><path class="cls-1" d="M240.43,190.64c-.14,4.14-.34,8.13-2.31,11.67a19.49,19.49,0,0,1-3.89,4.95,64.3,64.3,0,0,1-7.81,6c-3.06,2-6.61,2.15-10.17,1.79a9.64,9.64,0,0,1-6.71-3.14,15.83,15.83,0,0,1-4-9.54,55.17,55.17,0,0,1-.32-5.73c.13-3.55.31-7.24,1.85-10.43s3.17-6.25,6.26-8.25a17,17,0,0,0,2.63-2.25c3.47-3.46,13.47-4.51,17.7-1.56a14.37,14.37,0,0,1,5.68,8.72,65,65,0,0,1,1.12,7.73m-17.1-9.8a10.62,10.62,0,0,0-1.46.76c-2.43,1.8-3.4,4.52-3.8,7.25a76.12,76.12,0,0,0-.72,11.59,11.83,11.83,0,0,0,1.49,5,2.76,2.76,0,0,0,4.67.4,22.5,22.5,0,0,0,2.17-3.88,18.34,18.34,0,0,0,2.61-9.21,40.77,40.77,0,0,0-.75-7.33C227.06,183.31,226.21,181.1,223.33,180.84Z" transform="translate(-19.49 -164.7)"/><path class="cls-1" d="M95.13,203.38c1.52,2.58,2.91,5.1,4.39,7.57.87,1.45.66,2.79-.9,3.16a52.17,52.17,0,0,1-8.31,1.36c-.75.05-1.77-1.19-2.36-2.05-2.47-3.59-4.75-7.3-7.27-10.85-.44-.61-1.71-.71-2.63-.81-.22,0-.76.87-.79,1.36-.19,3-.31,6-.38,8.94,0,2.47-.47,3-2.92,3.16-1.61.13-3.22.33-4.83.33s-1.74-1.46-1.83-2.57.3-2.27.28-3.41c-.06-3.83-.3-7.66-.3-11.49s.19-7.74.33-11.61c.08-2.2.27-4.41.33-6.62a18.82,18.82,0,0,0-.33-2.34c-.29-3,.43-4,3.94-4.25a43.32,43.32,0,0,1,18.92,2.38c4.4,1.71,7.56,8,6.6,12.54-.72,3.36-2.94,5.53-4.9,7.95-.78,1-.86,1.5-.06,2.51,1.12,1.43,2,3.09,3,4.74m-17.9-16.49a9.82,9.82,0,0,0,0,2.66c.23.78.82,2,1.4,2.07a8.47,8.47,0,0,0,7.5-1.93,3.54,3.54,0,0,0,.18-4.75,6.75,6.75,0,0,0-5.74-2.5c-2.9,0-3.39.48-3.39,3.39v1.06m16.39,4.28a1.79,1.79,0,0,0,.34-.55,4.52,4.52,0,0,0,0-.9c-.24,0-.61-.05-.69.07a11.59,11.59,0,0,0-.68,1.42A2.21,2.21,0,0,0,93.62,191.17Z" transform="translate(-19.49 -164.7)"/><path class="cls-1" d="M271.08,184.58c2.09-3.67,4.36-7,7.79-9.38a27.65,27.65,0,0,1,3.31-1.88,52.52,52.52,0,0,1,5.25-2.38c3.1-1.13,6.15-.3,8.74,1.28,2.08,1.27,4.33,2.64,5.24,5.36a10.89,10.89,0,0,1-3,12.23c-3,2.87-6.13,5.77-10.13,7.32-2.53,1-5,2.21-7.87,2.05-1-.06-1.57.22-1.47,1.35.4,4.14,3.73,8.39,9.09,5.73a26.35,26.35,0,0,0,5.2-3.76c1.58-1.34,2.66-1.22,3.53.65a9.89,9.89,0,0,1,1,2.25,2.47,2.47,0,0,1-.42,1.89c-3.45,3.73-7.35,6.58-12.65,7.29a17.55,17.55,0,0,1-11.28-2.23c-3.25-1.81-4.63-5.06-5.44-8.4-1.17-4.83-.2-9.59,1.39-14.22.57-1.67,1.17-3.32,1.76-5.15m11.22,5c3.36-.75,5.18-3,6.15-6.16.56-1.8-.72-3.32-2.4-2.69a5.84,5.84,0,0,0-2.79,2.19,40.67,40.67,0,0,0-2.54,5.67,4.89,4.89,0,0,0-.06,1.49A8.62,8.62,0,0,0,282.3,189.57Z" transform="translate(-19.49 -164.7)"/><path class="cls-1" d="M200.61,192.15c-2.11,3.59-4,7.19-6.19,10.55-2.08,3.11-4.56,6-6.87,8.92-.14.19-.42.31-.49.51-1.25,4.12-4.66,3.15-7.53,3-.76,0-1.85-1.33-2.1-2.24-1.05-3.81-1.91-7.67-2.7-11.53-.45-2.16-.6-4.38-.94-6.57-.6-3.88-1.7-7.69-1.47-11.7.07-1.19-.88-1.57-2.08-1.19-1.81.58-2.52,0-2.5-1.84,0-4.94,4.54-8.12,9.34-7.08,2.35.51,4.26,1.2,5.24,3.4a30.92,30.92,0,0,1,2.12,6.06c.87,4.24,1.51,8.53,2.15,12.82a18.1,18.1,0,0,1-.29,2.7,5.53,5.53,0,0,0,.47,1.57,9.87,9.87,0,0,0,.92-1.13c1.25-2.08,2.42-4.23,3.73-6.28,2.37-3.72,2.79-7.47.57-11.43a9.32,9.32,0,0,1-1.06-5.95,3.14,3.14,0,0,1,3-2.57c5.75-.84,8.86,3.37,9.82,7.93S202.82,188.35,200.61,192.15Z" transform="translate(-19.49 -164.7)"/><path class="cls-1" d="M124.53,212.28c-2.37,2.59-5.5,3.11-8.59,3.65-5.1.88-9.64-.62-13.71-3.58-2.12-1.55-4-4.61-1.25-7.17a2.82,2.82,0,0,0,.47-.51c1.44-2.31,2.07-2.37,4.33-1a18.13,18.13,0,0,0,9.94,2.58,3.35,3.35,0,0,0,2.21-1.7c.54-1,1-2.18,0-3.38-1.75-2.07-4.26-2.37-6.6-3s-4.45-.69-6.37-2.33a13.29,13.29,0,0,1-4.49-6.87,11.34,11.34,0,0,1,.35-7.73c2-4.17,4.67-7.58,9.7-8.43a20.24,20.24,0,0,1,12.64,1.5,18.16,18.16,0,0,1,3.54,2.61,1.29,1.29,0,0,1,.07,1.23c-1.07,1.82-2.18,3.63-3.36,5.37-1,1.42-1.59,1.32-2.72-.2a6.43,6.43,0,0,0-8.27-1.56,2.31,2.31,0,0,0-.19,3.67,21.7,21.7,0,0,0,5.67,3c3,1,6,1.9,8.27,4a8.31,8.31,0,0,1,2.62,4.36C129.61,202.48,129.27,208,124.53,212.28Z" transform="translate(-19.49 -164.7)"/><path class="cls-1" d="M19.86,209.52c.11-3.15.38-6.14.32-9.11-.13-6.32-.45-12.63-.67-18.94-.05-1.33,0-2.66,0-4-.06-2.47.75-3.43,3.23-3.59,2.8-.17,5.6-.27,8.4-.36,3.81-.14,7.62-.28,11.43-.34a9.35,9.35,0,0,1,3.39.4,2.88,2.88,0,0,1,1.63,1.84,31.45,31.45,0,0,1,.08,4.86c0,2.62-2,4-4.61,3.45-3.43-.74-6.93-1.15-10.32.16A3.59,3.59,0,0,0,31,185.67a8.65,8.65,0,0,0-.4,2.86c-.07,1,.1,1.58,1.49,1.22a21.55,21.55,0,0,1,4.27-.19,49.91,49.91,0,0,0,5.19-.38c2.06-.32,3.27.55,3.29,2.64s0,4,0,6.06c0,1.2,0,1.76-1.73,1.44-2.15-.4-4.49.13-6.73.33-1.35.13-2.69.38-4,.61a2,2,0,0,0-1.78,2.34c.14,2.51.32,5,.34,7.51,0,3.31-1.18,4.5-4.39,4.43-1.31,0-2.63.28-3.95.31-1.95,0-2.29-.37-2.34-2.27C20.17,211.62,20,210.66,19.86,209.52Z" transform="translate(-19.49 -164.7)"/><path class="cls-1" d="M378.43,208.9c-2,1-3.78,2.26-5.77,2.68-4.29.91-8.57,1.26-13-.19s-8-3.85-10-8.25a37.59,37.59,0,0,1-2.51-10.57c-.5-3.95.61-7.34,2.05-10.69,1.15-2.65,3.44-4.53,5.79-6.28a19.4,19.4,0,0,1,12.29-3.77c4.19.09,8.52.38,11.79,3.7a2,2,0,0,0,.73.39c2.48,1,2.55,1,1,3.22a30,30,0,0,1-3.62,4.17,2,2,0,0,1-2,0c-4-4.15-11.83-3.65-15.11,1.2-2.49,3.68-2.68,7.66-1.16,11.92,1.6,4.46,4.65,7.12,9.17,7.6,1.85.2,4-.88,5.79-1.74,2.05-1,3.31-.8,4.44,1.15.22.38.37.8.62,1.16C380.45,206.82,380.45,206.87,378.43,208.9Z" transform="translate(-19.49 -164.7)"/><path class="cls-1" d="M148.5,208.81v2.32c0,2-.57,2.53-2.51,2.69-1.75.14-3.48.59-5.23.63a3.53,3.53,0,0,1-2.35-1.06c-.38-.39-.3-1.36-.22-2a32,32,0,0,0,.65-3.27c.08-5.11.06-10.21,0-15.32,0-1.55-.31-3.1-.32-4.66,0-1.37.28-2.75.32-4.12.06-1.9-1-2.56-2.83-2.09a24.4,24.4,0,0,1-4.44.88c-2.27.15-3.2-1.12-3.09-3.43a26.16,26.16,0,0,0-.33-4.66c-.2-1.49.82-2.71,2.81-2.61,3.22.17,6.45.09,9.68,0,2.38,0,4.77-.21,7.15-.35,1.5-.08,3-.38,4.48-.31a56.52,56.52,0,0,1,7.35.77c.44.08.89,1.39.93,2.15.12,2.21-.27,4.49.15,6.62.27,1.34-.5,2-1,2.1a31.73,31.73,0,0,1-7.26.53c-2-.17-2.75,0-2.85,2.15-.26,5.42-.47,10.84-.72,16.26C148.75,204.22,148.61,206.43,148.5,208.81Z" transform="translate(-19.49 -164.7)"/><path class="cls-1" d="M264.66,181.73a28.19,28.19,0,0,0-4.44.07,2.47,2.47,0,0,0-1.56,1.53c-.61,2.32-1.05,4.69-1.47,7.06-.3,1.73-.57,3.47-.7,5.23-.2,2.61-.29,5.24-.36,7.86,0,.6.29,1.21.32,1.81.07,1.53.93,1,1.64.64,1.4-.64,2.74-1.44,4.17-2s2.17.2,2.44,1.67c.55,2.91-.67,4.51-3.16,5.9-2.12,1.18-4,2.84-6.57,2.58a36.88,36.88,0,0,1-6.36-1.4,3.8,3.8,0,0,1-2.76-3.67,63.81,63.81,0,0,1,.53-7.41c0-.28.09-.56.11-.84.36-5.14.71-10.27,1.08-15.41,0-.32.25-.62.3-.94a16.5,16.5,0,0,0,.38-2.86c0-1.57-1.46-.63-2.17-1.09-1-.66-2-1.23-1.73-2.66a2,2,0,0,0,0-.35c0-1.25-.39-2.72.14-3.67.37-.65,2-.73,3.1-.8,2.69-.18,3.44-2.59,4.94-4.11a30.79,30.79,0,0,0,2.4-2.92c1.07-1.37,2.12-1.65,3.84-.75,2.56,1.34,3.64,3.1,2.91,5.8a5.81,5.81,0,0,0-.19,1.86c0,.23.46.64.67.62,1.11-.14,2.2-.51,3.31-.54a2.76,2.76,0,0,1,1.68.82c.21.2.08.85,0,1.28-.33,1.58-.82,3.13-1,4.73C266,180.74,265.92,181.5,264.66,181.73Z" transform="translate(-19.49 -164.7)"/><path class="cls-1" d="M49.88,212.28c0-5.16.19-10.22.24-15.3,0-1.9-.36-3.82-.3-5.72.14-4.29.39-8.58.72-12.86a8.38,8.38,0,0,1,1.07-2.93,2,2,0,0,1,1.2-.84c1.43-.32,2.9-.45,4.32-.75a3.23,3.23,0,0,1,4.06,3.3c0,2.09.05,4.19,0,6.28q-.32,12.4-.71,24.79a27.72,27.72,0,0,1-.41,4.47,2.25,2.25,0,0,1-1.36,1.39c-1.71.49-3.49.74-5.23,1.12C51.57,215.65,50.39,214.7,49.88,212.28Z" transform="translate(-19.49 -164.7)"/></g></svg>