<svg id="Layer_1" data-name="Layer 1" xmlns="http://www.w3.org/2000/svg" viewBox="0 0 23.23 24.39"><defs><style>.cls-1{fill:#13161b;}</style></defs><title>instagram-icon</title><g id="Instagram"><path class="cls-1" d="M8.82,15.57A4.37,4.37,0,0,1,9,13.67a7.06,7.06,0,0,1,3.86-4.8,5,5,0,0,1,5.78,1.35,9.06,9.06,0,0,1,.84,1.49,8.65,8.65,0,0,1,.81,2.23,5,5,0,0,1-1,3.78,6.48,6.48,0,0,1-3.29,2.18c-2,.6-4.48.21-5.76-1.47a7.85,7.85,0,0,1-.77-1.32,6.28,6.28,0,0,1-.59-1.54m3.93-4.9a2.87,2.87,0,0,1-1,1.06A1.39,1.39,0,0,0,11.07,13c.1.53-.48.93-.58,1.46s.33,1,.71,1.38a8.54,8.54,0,0,0,3,2.17,3,3,0,0,0,4-1.89,4.86,4.86,0,0,0,0-3.15,4.53,4.53,0,0,0-1.69-2.35A3.49,3.49,0,0,0,13,10.41a.53.53,0,0,0-.29.26m-.5,7.48A2,2,0,0,0,11.69,17a.48.48,0,0,0-.44-.17A2.2,2.2,0,0,0,12.25,18.15Z" transform="translate(-3 -2)"/><path class="cls-1" d="M20.51,7.07a2.13,2.13,0,0,1,1.11-.19,1.54,1.54,0,0,1,1.14,1.55,2.54,2.54,0,0,1-1,1.79,1.72,1.72,0,0,1-.9.43c-.81.06-1.39-.79-1.56-1.58a1.83,1.83,0,0,1,0-.93A2,2,0,0,1,20.51,7.07Z" transform="translate(-3 -2)"/><path class="cls-1" d="M13.91,2.44,20.44,2c1.7-.11,3.72-.07,4.69,1.33A4.42,4.42,0,0,1,25.73,5a16.78,16.78,0,0,1,.37,4.24q-.18,5.07.08,10.13a7.9,7.9,0,0,1-.51,4.13c-1.16,2.13-4,2.62-6.39,2.76a85.93,85.93,0,0,1-10.15,0A9.32,9.32,0,0,1,7,25.94a5.39,5.39,0,0,1-3.58-3.77,11.25,11.25,0,0,1-.28-2.46A76.16,76.16,0,0,1,3.39,6.63,3.94,3.94,0,0,1,3.87,5a3.67,3.67,0,0,1,2-1.29,29.68,29.68,0,0,1,8.08-1.25M6.41,6.27a6.75,6.75,0,0,0-.89,2.4,44.09,44.09,0,0,0-1,9.44c0,2.13.32,4.56,2.08,5.75a6.73,6.73,0,0,0,3.92.79,67.89,67.89,0,0,0,11.56-1.14,2.91,2.91,0,0,0,2-1.75,8.05,8.05,0,0,0,.52-2.71,62.24,62.24,0,0,0-.47-12.58,1.7,1.7,0,0,0-.42-1,1.53,1.53,0,0,0-.6-.29A31.24,31.24,0,0,0,12.2,4.07C10.05,4.16,7.62,4.5,6.41,6.27Z" transform="translate(-3 -2)"/></g></svg>