<svg id="Layer_1" data-name="Layer 1" xmlns="http://www.w3.org/2000/svg" viewBox="0 0 332.29 311.09"><defs><style>.cls-1{fill:#010101;}</style></defs><title>message</title><g id="Shape_48" data-name="Shape 48"><path class="cls-1" d="M237.31,243.15c.53,1.91-.81,3.94-2.57,4.85a13.08,13.08,0,0,1-5.8,1q-71.83,1.45-143.68-1.7a7.18,7.18,0,0,1-3.81-.89c-2.53-1.74-1.61-6,.93-7.76s5.85-1.63,8.92-1.48q69.33,3.45,138.79,2.76C232.93,239.91,236.54,240.41,237.31,243.15Z" transform="translate(-33.85 -51.28)"/><path class="cls-1" d="M238.11,210.63c-.77,1.66-2.78,2.29-4.57,2.7a154.74,154.74,0,0,1-48.12,3.34c-18.39-1.61-36.54-6.51-55-6.1-13,.3-25.9,3.25-38.94,3.79-3,.13-6.92-.52-7.56-3.48-.75-3.46,3.7-5.53,7.2-6.14a235.1,235.1,0,0,1,75.29-1c7.46,1.11,14.87,2.58,22.38,3.41a130.89,130.89,0,0,0,39.5-1.69c2.27-.44,4.66-.94,6.84-.2s4,3.28,3,5.38Z" transform="translate(-33.85 -51.28)"/><path class="cls-1" d="M164.57,174.7c.67,1.79-.59,3.84-2.29,4.71a11.82,11.82,0,0,1-5.61.86l-72.91-.69c-1.57,0-3.3-.1-4.44-1.19-1.72-1.65-.89-4.78,1-6.22s4.44-1.64,6.83-1.78a461,461,0,0,1,71.86,1.5C161.21,172.11,163.81,172.65,164.57,174.7Z" transform="translate(-33.85 -51.28)"/><path class="cls-1" d="M329.54,54c7.27.84,14.76,2.09,20.84,6.15,13.72,9.18,15.2,28.42,15.29,44.93q.22,43,.47,86c.06,10.71,0,21.81-4.41,31.55s-14.62,17.74-25.2,16.08c-3.76-.59-5.76,4.26-6.28,8a207.61,207.61,0,0,0-.44,52.89c-.42,2.61-3.7,3.91-6.24,3.21s-4.47-2.73-6.24-4.7a383.17,383.17,0,0,1-25.47-31.65c0,13.72-11.32,25.37-24.18,30.14s-27,4.13-40.71,3.43l-48.85-2.49c-6.66-.33-14.41-.21-18.54,5a632.36,632.36,0,0,1-50.13,56.38c-1.49,1.48-3.11,3-5.18,3.41s-4.58-1-4.52-3.13l1.52-50.83c.1-3.31-.85-7.8-4.16-7.82Q80.55,300.38,64,298.9c-11.18-1-24.3-3.89-28.57-14.27-1.6-3.88-1.61-8.2-1.61-12.4q.12-56.74.22-113.49c0-13.77,1.53-30.19,13.58-36.85,4.64-2.56,10.09-3.12,15.37-3.52a375.35,375.35,0,0,1,46.23-.59C113,99.5,107.18,78,119.07,63.6c6.17-7.48,16-11.1,25.67-12s19.36.52,29,1.44C225.5,58,277.9,48,329.54,54M165.84,286.28q39.28,3.56,78.79,3.4c11.84,0,25.27-1.08,32.72-10.29,6.91-8.55,5.91-20.78,5-31.75-2.06-26.26-1.21-52.64-.95-79,.11-11.27-.24-23.57-7.48-32.21-7.51-9-20.33-11.32-32-11.28-27.82.09-55.91,10.21-83,3.71-9.41-2.26-19.2-2-28.87-1.82l-59,1.37c-6.08.15-12.35.33-17.92,2.76S42.86,138.9,42.9,145q.3,59.39.61,118.76c0,4.71.07,9.53,1.66,14s5,8.5,9.65,9.5a139.44,139.44,0,0,0,46.94,2c2.92-.37,6.58-.51,8.06,2a7.42,7.42,0,0,1,.73,3.44q1.11,24.06,2.24,48.12,23.16-26.28,46.33-52.54c1.79-2,4-4.25,6.72-4M289.34,175q-.79,36.78.85,73.55c.06,1.41.19,3,1.22,4A192.81,192.81,0,0,1,318,283.87l2.43-52.06c.09-2,1.41-4.69,3.13-3.73a21.3,21.3,0,0,0,31.54-16.89c2.95-36.1,1.83-72.39.71-108.59a110.68,110.68,0,0,0-1.51-17.83c-1-5.28-2.93-10.58-6.66-14.47-5.91-6.16-15.13-7.61-23.66-8.06-8.93-.47-17.89-.23-26.83,0l-147,3.92a41.24,41.24,0,0,0-10,1.09C128.28,70.62,121.94,84,121,96.41c-.55,7.25.19,14.72-2,21.67,44.89-2.77,90-4.86,134.78-.63,5.26.5,10.62,1.11,15.45,3.26,9.36,4.19,15.44,13.73,18.06,23.65s2.26,20.34,2,30.6Z" transform="translate(-33.85 -51.28)"/></g></svg>