<svg id="longform_lato" data-name="longform lato" xmlns="http://www.w3.org/2000/svg" viewBox="0 0 399.67 91.11"><defs><style>.cls-1,.cls-2{fill:#731454;}.cls-2{font-size:21.18px;font-family:Lato-Regular, Lato;}.cls-3{letter-spacing:-0.01em;}</style></defs><title>NCCPPR-logo-long</title><g id="Shape_95" data-name="Shape 95"><path class="cls-1" d="M48.05,182.09c-.35-.21-.14-.74.11-1.07l3-4.06a4.89,4.89,0,0,1,1.32-1.36,4.65,4.65,0,0,1,1.95-.49c2-.18,4-.18,6-.18L93,175a3.28,3.28,0,0,1,1.29.17,3.32,3.32,0,0,1,1.44,1.5q1.33,2.15,2.61,4.31a1.51,1.51,0,0,1,.28,1.38c-.25.47-.9.53-1.43.52l-48.78-.71a.77.77,0,0,1-.37-.07m48.36-1c-.14.14,0,.44.24.36a.24.24,0,0,0-.23-.36Z" transform="translate(-5.33 -154.44)"/><path class="cls-1" d="M13.51,207.71a9,9,0,0,0,4.9,0l-.08-19.22a2.52,2.52,0,0,1,.61-2,2.45,2.45,0,0,1,1.83-.32l4.36.35a1.74,1.74,0,0,1,1.27.47,1.75,1.75,0,0,1,.24,1.08l-.09,19.4c.93,1.42,3.3,1,4.31-.37s1-3.19,1-4.89q0-7.08-.08-14.18a2.18,2.18,0,0,1,.46-1.68,2.23,2.23,0,0,1,1.53-.37L38,186a4.19,4.19,0,0,1,2.35.47c1.26.82,1.29,2.63,1.18,4.14l-1.89,25.63-31.79,1a2.88,2.88,0,0,1-1.7-.29c-.81-.53-.87-1.67-.85-2.63l.89-38.73c0-.38.13-.88.51-.89l26.63-.24c3,0,6.67-.42,8-3.14,3.52-7.21,10.32-12.56,17.94-15.07A42.19,42.19,0,0,1,83,156c10.24,2.68,20,9,24.63,18.46.21.45.81.51,1.3.51l30.27.12c1,0,1.32,1.37,1.31,2.39q-.16,18.36-.34,36.73a2.51,2.51,0,0,1-.32,1.44,2.48,2.48,0,0,1-2,.66l-26.6.15a2.05,2.05,0,0,1-1.34-.29,2.1,2.1,0,0,1-.54-1.68l-.57-25.74a1.49,1.49,0,0,1,1.75-1.88l4.78-.12a1.85,1.85,0,0,1,1.25.27,1.91,1.91,0,0,1,.45,1.52q-.12,9.69-.22,19.39c.78,1,2.49.57,3.2-.45a6.08,6.08,0,0,0,.71-3.63q-.09-8.32-.2-16.65a14.54,14.54,0,0,1,8.34-.26,73.51,73.51,0,0,1-.13,15.34,8.1,8.1,0,0,0,.19,4c.52,1.25,2,2.19,3.24,1.59q.28-11.88-.48-23.75c0-.49-.21-1.13-.7-1.12l-25.66.34a4.78,4.78,0,0,1-2.57-.45,5.28,5.28,0,0,1-1.69-2.24,32.17,32.17,0,0,0-27.86-17,32.18,32.18,0,0,0-27.95,16.83,3.23,3.23,0,0,1-1,1.28,3.1,3.1,0,0,1-1.71.33l-27.52,0q-1.19,12.75-1.55,25.55m47-49.42c0-.14-.2-.17-.34-.12a20.66,20.66,0,0,0-3.77,2c.09.32.57.22.85,0l3.26-1.94m50.92,56.57-.22-2a.34.34,0,0,0-.32-.07,1.94,1.94,0,0,0,.54,2.07m-101.14.27a.41.41,0,0,0,.56-.29l-2,.22a1.39,1.39,0,0,0,1.38.12m36-40.09a1.14,1.14,0,0,0-.43.94.3.3,0,0,0,.41,0l.15-.8m3.09-11.91a1.39,1.39,0,0,0-.58.77,1.4,1.4,0,0,0,.74-.45.31.31,0,0,0,.1-.31c0-.11-.24-.11-.24,0m56.35,12.94a.37.37,0,0,0-.59.09.56.56,0,0,0,.14.64l.37-.68m10.9,36.08.5-.24a.54.54,0,0,0-.89,0,.52.52,0,0,0,.36.21M33.59,198.19a.39.39,0,0,0,.06-.72.39.39,0,0,0-.07.63m90.93,11.24a.24.24,0,0,0,.42-.13.26.26,0,0,0-.44.14Z" transform="translate(-5.33 -154.44)"/></g><text class="cls-2" transform="translate(143.95 36.76)">North Carolina Center for <tspan x="0" y="25.41">Public </tspan><tspan class="cls-3" x="61.37" y="25.41">P</tspan><tspan x="73.99" y="25.41">olicy Research</tspan></text></svg>