<svg xmlns="http://www.w3.org/2000/svg" viewBox="0 0 361.48 320.53"><defs><style>.cls-1{fill:#fff;}</style></defs><title>perspectives</title><g id="videos"><g id="Forme_3" data-name="Forme 3"><path class="cls-1" d="M367.62,158.4c-1.83-17.74-4.46-37.16-17.61-49.22-2.06-1.89-1.44-5.64.82-7.28s5.49-1.42,7.94-.08a17.28,17.28,0,0,1,5.78,6,74,74,0,0,1,7.16,15.09,154.11,154.11,0,0,1-5.4,117.1c-1.44,3-3,6.12-5.54,8.38s-6.12,3.57-9.32,2.52c-2.36-.78-4.31-3.82-2.69-5.71a86.46,86.46,0,0,0,19.59-42.54C370.64,188,369.13,173.11,367.62,158.4Z" transform="translate(-19.26 -39.64)"/><path class="cls-1" d="M321.4,224.06a6.45,6.45,0,0,1-5.47-.62c-1.54-1.12-2.1-3.61-.75-4.95,10.68-10.65,16.09-26,15.75-41.09s-6.15-29.75-15.16-41.84c-2.19-2.93,1.71-7.24,5.33-6.74s6.16,3.74,8.07,6.85c13.45,22,14.27,50.48,4.61,74.36-2.42,6-6.14,12.33-12.38,14m6.17-12.87a8.53,8.53,0,0,0-3.75,5.07A11.33,11.33,0,0,0,327.57,211.19Z" transform="translate(-19.26 -39.64)"/><path class="cls-1" d="M41.52,214.63c-5.29,3.2-12.57,0-15.93-5.2s-3.84-11.67-4.21-17.84l-2.09-34.22c-.81-13.23,15.34-24.19,27.34-18.55,1.32-4.68.2-9.66.13-14.52s1.46-10.45,5.9-12.44A15.66,15.66,0,0,1,59,111l60-.15c5.64,0,11.45,0,16.67,2.14s9.77,6.93,9.84,12.56A344.54,344.54,0,0,0,282,44.45c2.05-2,4.23-4.08,7-4.68s6.26,1,6.44,3.9c5.47,84.54,8.33,169.32,5.63,254-.11,3.39-.29,7-2.21,9.78s-6.26,4.2-8.78,1.93A378.58,378.58,0,0,0,154,230.74c-2-.66-5.43,0-4.71,2,1.78,5-5.51,8.06-10.83,8.4s-12.6,3.4-10.8,8.42a594.31,594.31,0,0,1,25.87,96.61c.92,5.16-3,10.18-7.87,12.24s-10.25,1.88-15.48,1.66c-6.7-.28-13.53-.59-19.8-2.94s-12-7.15-13.75-13.63L71.11,248c-.82-3.07-2.39-6.78-5.57-6.9a16.35,16.35,0,0,1-15-12.87c-.61-3.22-.24-6.64-1.39-9.7s-4.86-5.61-7.66-3.91m116.35,9.65c48,19.09,97.76,38.51,134,75.31,1.46,1.49,3.24-1.51,3.19-3.59L289.39,70.2c-.06-2.43-.17-5-1.53-7s-4.44-3.07-6.27-1.46c-37.44,32.89-83.11,55.7-130.95,69.68-2,.59-4.56,1.84-4.29,3.95a752.61,752.61,0,0,1,5.78,83.4c0,2.82,3.11,4.48,5.74,5.53M146,222.55a132.94,132.94,0,0,0,.62-24c-.43-6.55-1.34-13.06-2.25-19.57l-7.92-56.69c-.53-3.81-5.57-4.71-9.42-4.66l-52.21.73a91.33,91.33,0,0,0-15.94,1.16A6,6,0,0,0,55.42,121c-1.1,1.18-1.16,3-1.15,4.58q.15,40.88.29,81.75c0,5.75.07,11.67,2.23,17s6.94,10,12.69,10.26a434.12,434.12,0,0,0,63.28-1.8c4.62-.47,10-1.5,12.06-5.63a13.69,13.69,0,0,0,1.13-4.6M102.66,341.83c2,6.25,9.38,8.86,15.9,9.56a63.12,63.12,0,0,0,20-1c1.92-.41,4-1,5.12-2.6,1.35-1.85,1-4.39.6-6.64a908.12,908.12,0,0,0-22.4-94.66c-.23-.8-.68-1.76-1.51-1.74a282.21,282.21,0,0,1-41-1.71c-2.16-.25-2.6,3-2.12,5.12q10.71,47.36,25.45,93.7M46.92,144.53a3,3,0,0,0-1.75-.9,14.64,14.64,0,0,0-10,1,10.26,10.26,0,0,0-5.55,8.13,262.59,262.59,0,0,0,.83,41.5c.38,3.82,1.14,8.13,4.35,10.22,2,1.34,4.63,1.44,7.07,1.5s5.94-.64,6-3.17a535.5,535.5,0,0,0-.49-56.52,3.21,3.21,0,0,0-.48-1.79M269.76,62.85A2,2,0,0,0,267.28,64a1.6,1.6,0,0,0,1.18.71A3.56,3.56,0,0,0,269.75,63Z" transform="translate(-19.26 -39.64)"/></g></g></svg>