<svg id="Layer_1" data-name="Layer 1" xmlns="http://www.w3.org/2000/svg" viewBox="0 0 280.65 181.64"><defs><style>.cls-1{fill:#fff;}</style></defs><title>reach</title><g id="Forme_34" data-name="Forme 34"><path class="cls-1" d="M238.91,238.8q-73.62,1.19-147.25.39c-9.45-.1-20.62-1.18-25.38-9.35-2-3.4-2.4-7.45-2.76-11.36a917.85,917.85,0,0,1-3.68-101.27c.06-3.17.22-6.58,2.17-9.08,2.31-2.94,6.37-3.72,10.08-4.21,50.65-6.69,102,.82,153.07,1.08,31.36.16,62.77-2.42,94-.3,6.23.42,13.09,1.34,17.18,6.06,3.95,4.56,4,11.2,3.9,17.23q-1,46.17-1.93,92.33c-.09,4.54-.29,9.38-2.94,13.06-3.58,5-10.37,6.15-16.47,6.68a211.23,211.23,0,0,1-41.16-.48l-3.18,43.21-26.75-37.45c-2.24-3.14-5.1-6.6-9-6.54m35.46,2c.18-2.17,1.13-5,3.29-4.81a225,225,0,0,0,41.28.25c3.89-.33,8.09-.91,10.89-3.64,3.32-3.23,3.61-8.39,3.68-13l1.44-91c.09-5.06,0-10.68-3.53-14.35s-9.28-4.07-14.43-4.16l-157.12-3c-28.61-.55-57.32-1.09-85.73,2.33-3.94.48-8.47,1.42-10.31,5a12.6,12.6,0,0,0-1,5.42c-.83,27.86.41,55.73,2.12,83.55.5,8.27,1.27,17.11,6.46,23.57,8.3,10.34,23.79,10.16,37,9.3a1103.94,1103.94,0,0,1,129.65-.85,15.65,15.65,0,0,1,6.41,1.27c2.11,1.09,3.59,3.07,5,5L271.81,272q1.28-15.58,2.56-31.17m62.8-103.61q-1.17,19.77-.92,39.6c0,.85.11,1.86.84,2.3q1.17-21.54,1.23-43.12c-.54-.44-1.11.52-1.15,1.22M190.85,235.89a2.1,2.1,0,0,0-1.38-.36l-25-.38a4.81,4.81,0,0,0-3.41.82,9.43,9.43,0,0,0,4.51.74H188.4a2.84,2.84,0,0,0,2.45-.81M103.63,103.45l-1,.52a1.71,1.71,0,0,0,2.81.07,1.69,1.69,0,0,0-1.72-.41m-32.34,4.11c.35-.33,0-1-.44-1.11a2.05,2.05,0,0,0-1.39.3,1.19,1.19,0,0,0,1.68.61m-.85,123c.52-.32-.15-1.31-.64-.93a.59.59,0,0,0,.61.85Z" transform="translate(-59.68 -101.15)"/></g></svg>