<svg viewBox="0 0 369.29 98.5" xmlns="http://www.w3.org/2000/svg"><g fill="#731454"><path d="m168.43 177.12c.44 18.72 0 37.47-1.36 56.14a11.64 11.64 0 0 1 -1 4.8c-1.68 3.06-5.55 3.75-8.91 4a151.15 151.15 0 0 1 -22.52-.06q-.71 11.76-1.42 23.53-7.24-11.13-15.53-21.48c-.8-1-1.78-2.08-3-2.07l-64.69.65a161.08 161.08 0 0 1 -20.63-.63c-3.67-.43-7.73-1.39-9.76-4.63-1.21-1.97-1.46-4.37-1.61-6.68q-2.31-26.33-2.59-52.8c0-2.46.08-5.23 1.8-6.9a8.07 8.07 0 0 1 4.45-1.77c25.06-4.25 50.65-1.12 76-.63 18.74.36 37.48-.72 56.21-.35 3.12.07 6.32.19 9.18 1.5s5.31 4.11 5.39 7.38m-51.5 63.94a5.71 5.71 0 0 1 1.47 1.51l13.65 18.21 1.23-17.59c.08-1.16.53-2.69 1.64-2.61a159.32 159.32 0 0 0 21.63 0c2.56-.17 5.36-.53 7.1-2.51s1.85-4.93 1.88-7.61q.22-25.16.47-50.3a11.58 11.58 0 0 0 -.85-5.5c-1.78-3.42-6.19-3.89-9.9-3.93l-84.37-1.09c-16-.21-32-.41-47.89 1.79-2.25.31-4.84.93-5.81 3.09a7.78 7.78 0 0 0 -.45 3 446.32 446.32 0 0 0 1.91 47.82c.31 3.34.71 6.81 2.43 9.62a14 14 0 0 0 9.18 5.95c3.62.76 7.36.51 11 .29a702.16 702.16 0 0 1 73.12-.66 5.24 5.24 0 0 1 2.51.54m49.84-28.39c1.23-10.25 1-20.63.76-31a7 7 0 0 0 -.45-2.81c-.55 11.24-.65 22.52-.31 33.77m-77.71 27.9a149.53 149.53 0 0 0 -24.22.37 2.62 2.62 0 0 0 -1.65.57 258.42 258.42 0 0 1 28.52-.25 5 5 0 0 0 -2.65-.69m61.86-71.43a63.5 63.5 0 0 0 -11.86-.08c-.24 0-.55.13-.52.38q5.79.17 11.58.29c.38 0 .94-.21.8-.59m-112.86-.21 4.22-.26a3.13 3.13 0 0 0 1.87-.51 17.31 17.31 0 0 0 -7.12.53 1.32 1.32 0 0 0 1 .24m-14.6 1.37c.05-.3-.35-.44-.64-.44a10.18 10.18 0 0 0 -4.36 1c.12.3.52.3.82.24l4.18-.76m143.61 48.98c0-.39-.18-1-.52-.81a31.8 31.8 0 0 0 -.09 5.52c.35-.13.43-.6.44-1l.17-3.72m-144.72 19.39a.66.66 0 0 0 .38.12.35.35 0 0 0 .28-.23 29 29 0 0 1 -2.28-2.29c-.24 1 .75 1.88 1.62 2.4m51.35-69.75a6.73 6.73 0 0 0 1.89-.21 5.51 5.51 0 0 0 -2.37-.36.29.29 0 0 0 0 .43.74.74 0 0 0 .46.14m5.28.18a.49.49 0 0 0 -.46-.46.49.49 0 0 0 -.46.46.91.91 0 0 0 .79 0m2.29-.31-.87.19a.62.62 0 0 0 1-.05z" transform="translate(-15.36 -167.02)"/><text font-family="Lato-Regular, Lato" font-size="46" transform="translate(10.71 52.03)"><tspan xml:space="preserve">Reach   NC </tspan><tspan letter-spacing="-.06em" x="225.9" y="0">V</tspan><tspan x="254.51" y="0">oices</tspan></text></g></svg>