<svg id="Layer_1" data-name="Layer 1" xmlns="http://www.w3.org/2000/svg" viewBox="0 0 271.18 271.36"><defs><style>.cls-1{fill:#010101;}</style></defs><title>rss</title><g id="Shape_48" data-name="Shape 48"><path class="cls-1" d="M67.36,200.35q.84-18.89,1.67-37.78c.11-2.58.33-5.4,2.11-7.27,2-2.09,5.26-2.24,8.15-2.13,32.62,1.18,63.27,16.13,90.18,34.6,30.08,20.64,57.92,47.68,68.6,82.56,5.62,18.33,6.17,37.78,6.68,56.95a10.39,10.39,0,0,1-.6,4.68c-1.78,3.8-7,4-11.22,3.57l-28.4-2.72c-7.55-.72-17.35-3.84-17-11.42,1-22.8-9.42-45.08-24.74-62s-35.23-29-55.79-39c-10.35-5-21.54-9.58-33-8.31-5.13.57-6.89-6.61-6.66-11.76m102.6.55c-19.26-12.12-41.13-19.3-62.75-26.37l-18.34-6c-2-.66-4.29-1.3-6.17-.32-2.53,1.33-2.89,4.74-2.92,7.6l-.25,19.87a8,8,0,0,0,.67,4.05c.92,1.63,2.84,2.38,4.61,3,25.19,9.05,50.24,19.79,70.93,36.78s36.77,41,39.11,67.71c.35,4,.77,8.71,4.2,10.81a12,12,0,0,0,5.11,1.32L229.63,322a5.88,5.88,0,0,0,3-.21c2-.9,2.31-3.58,2.27-5.78C234.07,270.12,208.82,225.35,170,200.9Z" transform="translate(-64.41 -64.32)"/><path class="cls-1" d="M115.14,329.29c-15,5.19-32.5-.28-43.25-11.89-5.52-6-8-14.42-7.39-22.53a40.76,40.76,0,0,1,9.27-22.17c8.06-10,20.46-16.68,33.28-16.58s25.65,7.55,30.92,19.24a36.39,36.39,0,0,1,2.83,10.35c2.3,18.09-8.43,37.59-25.66,43.58M80.72,290.07c-1.33,5.06.12,10.47,2.47,15.15,5.25,10.5,17.21,19,28.42,15.49,7.76-2.41,13-9.86,15.47-17.6,2.27-7.17,2.55-15.25-.8-22-5.71-11.46-22.38-15.61-32.79-8.17a37.39,37.39,0,0,0-7.74,8C83.63,283.76,81.6,286.7,80.72,290.07Z" transform="translate(-64.41 -64.32)"/><path class="cls-1" d="M71.25,127.45c-5.33-3.53-6.62-10.88-5.89-17.23s2.94-12.58,2.66-19c-.24-5.28-2.19-10.42-2-15.7s3.64-11.19,8.93-11.23A243.08,243.08,0,0,1,200.12,98.25c15.65,9.31,30.2,20.35,44.52,31.59,11.76,9.21,23.48,18.67,33,30.17,9.05,10.92,15.93,23.45,22.27,36.14,12.27,24.55,22.78,50.12,29,76.84a256.81,256.81,0,0,1,6.6,49.3c.11,3.08,0,6.57-2.25,8.67s-5.65,2-8.68,1.74l-36.74-2.84c-4.47-.34-10.06-1.61-10.93-6a469.48,469.48,0,0,0-26.54-88.11c-3.64-8.84-7.59-17.63-13.08-25.47-4.88-7-10.9-13.09-16.89-19.16l-21.72-22c-5.85-5.93-11.77-11.92-18.84-16.33-8.56-5.35-18.43-8.16-28.14-10.91-21.7-6.12-43.76-12.3-66.31-12-4.87.06-10.12.32-14.19-2.37m98.65-25.7Q132.8,90,95.25,79.77c-5.53-1.5-13.48-1.67-14.79,3.91-1.64,7-3.3,14.33-1.7,21.36s7.47,13.64,14.67,13.56c62.94-.77,125.07,34.47,156.71,88.88,17.39,29.9,25.72,64.09,33.09,97.88,1.55,7.11,8.25,12.18,15.29,14s14.47.95,21.69.09c1.36-.16,2.88-.41,3.69-1.52a5,5,0,0,0,.52-3.41c-6.14-71.57-42.8-140-99-184.79A146.88,146.88,0,0,0,203.9,115c-10.72-5.8-22.38-9.62-34-13.29m-6.43-10.36A16.61,16.61,0,0,0,147,87.55a62,62,0,0,0,16.46,3.84M135.85,78.11c-.79-1.67-3.15-1.62-5-1.31l-.5,4.48a3.6,3.6,0,0,0,5-3m5.29,7.09a1.7,1.7,0,0,0,1.49,2.44A14.18,14.18,0,0,1,147.45,82L142,81.68l-1.5,3.54m120.79,72.06a1.6,1.6,0,0,0-2.81.83,1.71,1.71,0,0,0,2.94-.93Z" transform="translate(-64.41 -64.32)"/></g></svg>