<svg id="Layer_1" data-name="Layer 1" xmlns="http://www.w3.org/2000/svg" viewBox="0 0 242.59 249.99"><defs><style>.cls-1{fill:#13161c;}</style></defs><title>search</title><g id="Search"><path class="cls-1" d="M270.67,205.24c-.86,1.65-1.6,3.26-2.44,4.82-.66,1.21-1.73,2.26-2.08,3.54a6.12,6.12,0,0,0,.18,3.88,19.25,19.25,0,0,0,5.94,6.88c1.16.92,2.21,2,3.3,3,4.11,3.83,8.2,7.68,12.32,11.51,3.14,2.91,6.32,5.79,9.48,8.69q5,4.56,10,9.15l9.58,8.78,9.68,8.87c3.25,3,6.44,6.06,9.79,8.94a19.39,19.39,0,0,1,5.26,6.37c1.43,3,1.42,6.2,1,9.43a19.7,19.7,0,0,1-.35,2.79,27.34,27.34,0,0,1-6.07,10.84c-1.71,1.9-3.22,4-5,5.76a71.32,71.32,0,0,1-6.54,5.48,6.26,6.26,0,0,1-3.73,1c-2.92.11-5.73-.18-8.22-1.79-3.07-2-6.12-4-9.07-6.14-3.75-2.72-7.48-5.48-11.06-8.41-4.46-3.63-8.88-7.33-13.1-11.24q-8.46-7.83-16.58-16c-3.12-3.15-5.92-6.62-8.91-9.91-2.57-2.82-5.12-5.68-7.85-8.35a41.3,41.3,0,0,0-10.25-7.79c-2.27-1.12-4.66-2.27-7.36-2.21-2.15,0-4.32-.13-6.45.06a24.46,24.46,0,0,0-3.91,1.14c-1.93.53-3.86,1-5.8,1.47-2.15.52-4.32,1-6.47,1.47-.21,0-.41.11-.61.14a114.4,114.4,0,0,1-20.09.74,98.66,98.66,0,0,1-10.06-1.45c-.62-.09-1.24-.23-1.85-.36-1.81-.35-3.64-.66-5.43-1.08a51.72,51.72,0,0,1-6-1.62,99.71,99.71,0,0,1-9.6-3.87c-4.16-2-8.25-4.21-12.24-6.55a53.54,53.54,0,0,1-7.11-5.05c-3.08-2.57-6.1-5.26-8.92-8.11a80.43,80.43,0,0,1-11.83-15.78,81.36,81.36,0,0,1-6.73-14.56,61.78,61.78,0,0,1-3.16-11.79c-.33-2.36-.89-4.7-1.34-7a12.63,12.63,0,0,1-.23-1.5c-.11-2.11-.24-4.23-.26-6.34,0-4.53-.23-9.07.06-13.57a80.19,80.19,0,0,1,1.69-9.42c.29-1.53.52-3.07.93-4.56s1-2.87,1.52-4.31c.65-1.86,1.2-3.77,2-5.6a59,59,0,0,1,6-11.67c1.85-2.66,3.6-5.38,5.5-8a50.51,50.51,0,0,1,4.15-5.08c2.56-2.71,5.11-5.45,7.91-7.88,3.65-3.15,7.49-6.09,11.36-9,2.65-2,5.42-3.81,8.24-5.55a67.56,67.56,0,0,1,6.57-3.48c2.89-1.38,5.81-2.72,8.79-3.9,2.64-1,5.35-1.93,8.08-2.73,1.52-.45,3.14-.58,4.72-.88a6.85,6.85,0,0,0,1-.38,17.9,17.9,0,0,1,2.12-.66,37.14,37.14,0,0,1,3.79-.53c1.87-.15,3.75-.16,5.62-.3,1.27-.1,2.53-.34,3.8-.48a1.67,1.67,0,0,1,.72.13,2.52,2.52,0,0,0,2.49,0c.48-.3,1.39.09,2.1.15a31.48,31.48,0,0,0,3.49.24,14.82,14.82,0,0,1,4.89.79c2,.6,4.2.8,6.24,1.4a58.67,58.67,0,0,1,16.37,7.49c3,2,5.83,4.46,8.69,6.76a38.56,38.56,0,0,1,4.38,3.88c3.14,3.43,6.21,6.91,9.16,10.49,2.36,2.85,4.59,5.81,6.7,8.84a95.54,95.54,0,0,1,5.64,8.87,105,105,0,0,1,4.56,9.73c1.47,3.48,2.84,7,4.05,10.6.88,2.63,1.41,5.38,2.12,8.07a93.45,93.45,0,0,1,1.68,10.4c.71,4.88.34,9.75.4,14.61a38.1,38.1,0,0,1-.82,5.65c-.18,1.22-.22,2.47-.48,3.67-.43,2-1,3.86-1.51,5.78-.64,2.36-1.19,4.75-2,7.06-.64,1.91-1.57,3.72-2.43,5.64M230.55,95.83c-.87-.6-1.71-1.24-2.6-1.79-2.17-1.32-4.34-2.63-6.55-3.86a49.1,49.1,0,0,0-4.86-2.45,27.61,27.61,0,0,0-5.57-2c-1.94-.37-3.85-.93-5.78-1.31a51.5,51.5,0,0,0-7.47-.86c-3.11-.16-6.23-.08-9.35,0a14.44,14.44,0,0,0-3.11.52c-2.11.53-4.33.4-6.41,1.28a43.22,43.22,0,0,1-4.62,1.11c-1.49.44-2.93,1.09-4.41,1.6-1.21.41-2.5.63-3.66,1.15-1.73.77-3.37,1.74-5.07,2.59-1.87.94-3.86,1.7-5.64,2.79-3,1.81-5.88,3.73-8.68,5.79a94.53,94.53,0,0,0-7.39,6c-2.17,1.94-4.21,4-6.21,6.18-2.29,2.45-4.65,4.86-6.68,7.52a76.94,76.94,0,0,0-9.82,15.81c-1.32,3-2.64,6-3.88,9.07a21.13,21.13,0,0,0-.92,3.22c-.4,1.72-.61,3.48-1.11,5.16a38.35,38.35,0,0,0-1.56,10c-.06,3,0,6.09,0,9.13a38.72,38.72,0,0,0,0,5.6c.44,3,1.43,5.87,1.74,8.85a35.73,35.73,0,0,0,1.71,6.79,74.88,74.88,0,0,0,3.22,8.94c1.57,3.46,3.45,6.78,5.31,10.09a66.57,66.57,0,0,0,10.13,13.41c2.53,2.63,5.36,5,8.14,7.38A70.8,70.8,0,0,0,156.42,244a120.67,120.67,0,0,0,12,4.31c1.77.58,3.65.87,5.48,1.28a61.26,61.26,0,0,0,11.58,1.68c1.2,0,2.41,0,3.61,0a50.31,50.31,0,0,0,6.82.19c3.41-.38,6.88.11,10.26-1,2-.61,4.13-.53,6.13-1,2.76-.7,5.48-1.57,8.17-2.51q4.77-1.68,9.45-3.61c1.89-.78,3.58-1.8,5.86-1.55a6.77,6.77,0,0,1,4.51,2.08c1.58,1.69,3.1,3.43,4.63,5.15,2.68,3,5.33,6.08,8,9.09s5.56,6.17,8.41,9.2,5.72,6,8.69,8.95c7,6.89,14,13.77,21.11,20.57,4.27,4.09,8.66,8.05,13.06,12A47.53,47.53,0,0,0,310,313.4a21.68,21.68,0,0,0,7.56,3.42,12.23,12.23,0,0,0,7.06-.51c6.16-2.44,8.73-7.8,9.82-13.81.68-3.76-.22-7.5-1.74-11.11-2.77-6.61-8-11.19-12.92-16-2.33-2.27-5-4.16-7.53-6.27-2.12-1.79-4.16-3.67-6.28-5.46-3.19-2.7-6.42-5.35-9.62-8-1.89-1.58-3.74-3.22-5.62-4.81-2.7-2.27-5.43-4.52-8.13-6.8-1.95-1.65-3.86-3.35-5.81-5-2.57-2.16-5.16-4.29-7.75-6.43-2-1.64-4-3.21-6-4.92-3-2.62-5.37-5.57-5.19-9.86a31.74,31.74,0,0,0,0-3.65c-.16-2.16.77-4,1.53-5.92,1.15-2.81,2.63-5.49,3.92-8.25a54.07,54.07,0,0,0,3.78-9.92c.65-2.68,1.69-5.27,1.76-8.09a30.46,30.46,0,0,1,.51-3.52,21.89,21.89,0,0,0,.49-3.91c-.16-3.68-.45-7.35-.78-11a48.18,48.18,0,0,0-.85-6.46c-.63-2.73-1.53-5.41-2.34-8.1-.64-2.14-1.17-4.32-2-6.38-1.42-3.55-2.95-7.06-4.61-10.5a110.65,110.65,0,0,0-9.57-15.81,90.79,90.79,0,0,0-9.6-11.61C237.12,101.64,233.84,98.86,230.55,95.83Z" transform="translate(-100.29 -75.01)"/><path class="cls-1" d="M248.64,147c.63,1.7,1.29,3.31,1.74,5s.81,3.6,1.12,5.42c.48,2.83,1.08,5.66,1.29,8.52s.05,5.9.05,8.85v1.07a52.82,52.82,0,0,1-1.66,12c-.61,2.58-1.29,5.15-2.11,7.67a29.73,29.73,0,0,1-2.15,5.11c-1.77,3.28-3.57,6.56-5.6,9.69a74.68,74.68,0,0,1-4.85,6.14,46.81,46.81,0,0,1-9.7,8.79,79.47,79.47,0,0,1-10.36,5.89,53.88,53.88,0,0,1-8.19,3.1c-2,.62-4.21.76-6.3,1.24-4.35,1-8.76.87-13.15.75a66.22,66.22,0,0,1-7.81-.79,65.14,65.14,0,0,1-6.79-1.33,63.72,63.72,0,0,1-7.93-2.43,70.32,70.32,0,0,1-8.34-4,95.49,95.49,0,0,1-8.35-5.29,49.87,49.87,0,0,1-10-9.29,87.85,87.85,0,0,1-5.72-7.39,80.93,80.93,0,0,1-4.84-8.93,56.18,56.18,0,0,1-3.27-8.25c-.88-3-1.59-6-2.21-9.13a69.83,69.83,0,0,1-.91-15.33,53.1,53.1,0,0,1,.91-9.19A73.73,73.73,0,0,1,126.34,144a73.26,73.26,0,0,1,4.45-9.5,69.5,69.5,0,0,1,4.32-6.75,52.2,52.2,0,0,1,3.58-4.65,55.07,55.07,0,0,1,4.82-5.07,64.27,64.27,0,0,1,10.83-8.32c2.92-1.64,5.8-3.38,8.79-4.89a52.54,52.54,0,0,1,5.55-2c1.39-.51,2.74-1.17,4.17-1.54,1.91-.49,3.9-.66,5.8-1.15a39.18,39.18,0,0,1,11.42-.74,52.33,52.33,0,0,1,6.43.9c1.7.27,3.4.56,5.08,1a26.66,26.66,0,0,1,4,1.23,75.06,75.06,0,0,1,7.66,3.42c3,1.62,5.75,3.53,8.6,5.34a48.87,48.87,0,0,1,10,8.44A116.28,116.28,0,0,1,240,129.71a59,59,0,0,1,5,8.35c1.42,2.87,2.44,5.93,3.7,9m-42.26-36.92a10,10,0,0,0-1.46-.65c-2.34-.69-4.68-1.43-7.06-2a41.87,41.87,0,0,0-6.4-1,39.77,39.77,0,0,0-7.83.62,63.93,63.93,0,0,0-6.64,1.14,38.07,38.07,0,0,0-9.38,3.46c-3.36,1.86-6.91,3.46-10.06,5.63a57.8,57.8,0,0,0-11.78,10.86,69,69,0,0,0-8.27,12.33,44.11,44.11,0,0,0-4.32,10.9c-.61,2.86-1.76,5.62-2.31,8.5a45.13,45.13,0,0,0-.8,8.6c0,3.67.41,7.34.78,11a23.25,23.25,0,0,0,1.05,4.22c.47,1.58,1,3.13,1.59,4.68a46.21,46.21,0,0,0,2,5.57,67.06,67.06,0,0,0,10,14.8,61.23,61.23,0,0,0,11.44,10,59.41,59.41,0,0,0,17.39,8.26c2.1.57,4.25.95,6.39,1.34a47.06,47.06,0,0,0,5.54.79,42.73,42.73,0,0,0,12.5-1.05,53.43,53.43,0,0,0,7.38-1.84c3.62-1.44,7.14-3.18,10.62-5a44.63,44.63,0,0,0,10-7.36c3.54-3.32,7-6.77,9.45-11a102.84,102.84,0,0,0,4.95-9,47.36,47.36,0,0,0,3.16-10.44,35.65,35.65,0,0,0,.76-7.56c-.05-2.4,0-4.8,0-7.2a5.34,5.34,0,0,0,0-1.06,56.14,56.14,0,0,1-1.51-7.49c-.19-2.92-1.29-5.56-2.07-8.26a63.5,63.5,0,0,0-4.09-9.77c-1.37-2.82-3-5.54-4.62-8.23-1.2-2-2.57-3.84-3.95-5.7a31.07,31.07,0,0,0-2.92-3.46c-2.68-2.69-5.29-5.48-8.2-7.89a71.12,71.12,0,0,0-7.94-5.29C208.78,111.06,207.61,110.72,206.38,110.11Z" transform="translate(-100.29 -75.01)"/></g></svg>