<svg id="Layer_1" data-name="Layer 1" xmlns="http://www.w3.org/2000/svg" viewBox="0 0 229.52 243.67"><defs><style>.cls-1{fill:#fff;}</style></defs><title>social</title><g id="Forme_37" data-name="Forme 37"><path class="cls-1" d="M146.22,182.66a36.23,36.23,0,0,1-1.88,20.59l79.23,42.07c1.53.81,3.4,1.64,4.93.81,13.36-7.18,28.64-13.28,43.39-9.73,19.1,4.6,31.65,27,25.9,45.8s-28.32,30.35-47,24.36-30.36-28.17-25-47.08l-85.38-47.6c-8.85,13.61-27.23,20.1-42.71,15.21s-26.78-20.64-26.59-36.88,11.76-31.65,27.24-36.53,33.71,1,43.48,14c.83,1.1,2.56.49,3.75-.21l77.75-46c-5.27-15.8-1.46-34.62,10.54-46.17s31.89-14.45,46-5.67c11.37,7,17.87,20.19,20,33.4,1.69,10.52.74,22-5.33,30.73-7.73,11.13-22.76,15.76-36.06,13.24S233.63,135.73,225.32,125c-.08,3-3.06,5.07-5.7,6.59Q186,150.92,153.43,172.1c-3.81,2.48-8.12,6.11-7.21,10.56m145.2-85c-4-8.1-9.8-15.54-17.59-20.12s-17.72-6-26-2.35a40.65,40.65,0,0,0-7.37,4.44,21.36,21.36,0,0,0-4.5,4,19.72,19.72,0,0,0-3.23,7.67,65.37,65.37,0,0,0-1.41,22.17c.83,7.71,3.4,15.8,9.57,20.49,4.93,3.76,11.42,4.77,17.61,4.81,8.56.06,17.34-1.6,24.5-6.3s12.41-12.76,12.26-21.31c-.08-4.73-1.75-9.29-3.84-13.53m-162,72c-8.43-11-25.39-14.35-37.36-7.34s-17.36,23.43-11.88,36.17c1.5,3.49,3.68,6.65,5.18,10.14,2.54,5.93,8.67,9.73,15,11s12.87.43,19.23-.7a31.89,31.89,0,0,0,6.7-1.74c6.94-2.89,11.33-10.25,12.2-17.72s-1.28-15-4.43-21.83a42.22,42.22,0,0,0-4.64-8m103.38,91.11c-1,12.08,2.84,25,12,32.91s23.9,9.62,33.49,2.21c6.74-5.21,10.06-13.79,11.25-22.23,1.06-7.44.47-15.72-4.44-21.41-3.47-4-8.63-6.2-13.77-7.51-9.92-2.53-21-2.19-29.68,3.26-4.54,2.87-8.4,7.42-8.84,12.77M227.84,94.07c-.28-.35-.79.14-.94.57a27.54,27.54,0,0,0-1,13.89c.33.37.81-.3.85-.79q.57-6.61,1.15-13.22a.7.7,0,0,0-.07-.45m60.6,195c-.59.88-1.27,1.95-.82,2.91a26.18,26.18,0,0,0,6.3-15.18,1,1,0,0,0-1.34.37,3.13,3.13,0,0,0-.38,1.48,22.94,22.94,0,0,1-3.76,10.42m-49.86-43.33a1.25,1.25,0,0,0-1.4-.78,3.46,3.46,0,0,0-1.55.78,31,31,0,0,0-5,4.78c-.5.6-1,1.54-.41,2.09,1.21-.18,1.83-1.49,2.52-2.5,1.4-2,3.67-3.24,5.85-4.37m-9.24,30.68c-.23-.73-1-1.61-1.54-1.11l2.16,6.73a35.31,35.31,0,0,0,2.31,5.94c.54-.32.42-1.11.23-1.71l-3.16-9.85M215.54,248l8,4.78c.58.34,1.55.56,1.74-.09a30.49,30.49,0,0,0-7.7-4.82c-.68-.3-1.63-.49-2,.13M178,229.28a2.44,2.44,0,0,0,2.58,1.51L179.09,229a2.33,2.33,0,0,0-1.22-.91c-.51-.1-1.13.35-1,.85l1,.36m-38.45-56.69a1.26,1.26,0,0,0,2.19.31,1.75,1.75,0,0,0-2.11-.32M150.17,211l-1.24.67a6.47,6.47,0,0,0,2.08.87,1.14,1.14,0,0,0-.78-1.3M278.3,141.35a.75.75,0,1,0,1.3.29,1.45,1.45,0,0,0-1.17-.15m-75.7,100.3c.32.19.63-.46.29-.61a1.72,1.72,0,0,0-2-.16,2.68,2.68,0,0,0,1.71.62m23.65-129.4a.79.79,0,0,0,.6.74,1.25,1.25,0,0,0-.29-1.77.78.78,0,0,0-.39,1Z" transform="translate(-71.07 -64.49)"/></g></svg>