<svg viewBox="0 0 188.42 205.33" xmlns="http://www.w3.org/2000/svg"><path d="m130.26 189.6c-2.8 1.26-6-1.57-6.51-4.61s.84-6 1.87-8.93 1.77-6.24.29-8.94c-4.4-8-8.91-16.31-9.52-25.42-.18-2.73 0-5.53-.79-8.15s-2.81-5.14-5.53-5.42c-1.89-.19-1.11-3.56.77-3.79s3.49 1.22 5 2.34 3.84 1.91 5.18.56c5.52-5.53 15.15-4.69 21.59-.27s10.45 11.51 14.23 18.34c3.25 5.87 10.56 7.78 16.74 10.39 2.09.89 4.31 2.11 5.1 4.25s-1 5.11-3.23 4.5q60.86 68.45 121.69 136.91a15.48 15.48 0 0 1 -5.9 14.89c-2.7 2-6 3.05-9.21 4a217.15 217.15 0 0 1 -96 5.46c-10.13-1.71-21.88-5.75-24.47-15.69q-15.7-60.18-27.23-121.34c-1-1.09-2.68.32-4.06.94m81.57 90.67c9.62-1.35 19.33-2.7 29-2.09s19.21 3.16 28.61 5.7l12.32 3.34-108.77-121.5q-17.1 7.84-33.55 17.07a3.95 3.95 0 0 0 -2.39 5.3q10.57 57.7 26 114.37c1.73-5.9 7-10.05 12.48-12.88 11.15-5.77 23.85-7.59 36.28-9.33m-34.37 12.12c-4.81 2.46-9.52 5.88-11.47 10.92s0 11.84 5.19 13.48a180.07 180.07 0 0 0 110-.44c4.83-1.59 10.32-4.19 11.21-9.19.54-3-.88-6.11-2.77-8.54-6.92-8.86-19.24-11.06-30.42-12.18q-15.53-1.56-31.13-2c-17.25-.52-35.21.14-50.57 8m-23.67-141.37c-1.48-4.84-3.14-9.68-5.85-13.95s-6.6-8-11.4-9.59-10.53-.86-14.2 2.63c-1.32 1.26.07 3.61 1.81 4.16s3.67.17 5.42.66 3.31 2.68 2.13 4.07-3.3.45-4.77-.51l-4.17-2.76c-1.23-.81-3 .09-3.6 1.43a7.18 7.18 0 0 0 -.1 4.33 72.07 72.07 0 0 0 10.38 25.52c.31.49.72 1 1.29 1.05a1.89 1.89 0 0 0 1.15-.45 273.24 273.24 0 0 0 21.91-16.59m-12 13.6c-4 2.57-8 5.21-10.93 9s-4.44 8.87-2.77 13.29a135 135 0 0 1 45.59-24.44 1.82 1.82 0 0 0 .71-2.63 5.33 5.33 0 0 0 -2.49-1.82c-4.7-2.15-10-4.34-14.86-2.7a20.26 20.26 0 0 0 -4.52 2.41l-10.73 6.93m85.84 117.08 8.93.61 4.42.3 12.34.83c1.45.1 3.1.13 4.11-.92-3.35-.45-6.67-1-10-1.45a108.08 108.08 0 0 0 -21.8-.53c.09.84 1.17 1.1 2 1.16m-73.33-136.52 1.26 4.67a3.57 3.57 0 0 0 1.29 2.27c1-1.18.3-2.92-.39-4.28a5.54 5.54 0 0 0 -2.16-2.66m128.22 143.37a.57.57 0 0 0 -.14-.85.56.56 0 0 0 -.76.4 1.27 1.27 0 0 0 .93.46z" fill="#fff" transform="translate(-108.98 -123.37)"/></svg>