<svg id="Layer_1" data-name="Layer 1" xmlns="http://www.w3.org/2000/svg" viewBox="0 0 263.12 264.74"><defs><style>.cls-1{fill:#010101;}</style></defs><title>translate-2</title><g id="Shape_50" data-name="Shape 50"><path class="cls-1" d="M306.56,126.72c6.16,6.91,12,14.27,15.94,22.63A88.4,88.4,0,0,1,329.22,172c6.87,38.8-1.51,80.67-25.33,112.06s-63.39,51-102.67,48c-23.39-1.78-47.06-5.73-67.9-16.49-35.24-18.2-59.07-55.47-63.91-94.84s8.38-80,33-111.13a123.25,123.25,0,0,1,16.54-17.48c26.84-22.86,65.39-29.25,99.7-21.13s64.47,29.43,87.94,55.73M206.2,263.79c1.63,1.58,4.17,1.63,6.44,1.56q13.52-.45,27-2.11c2.54-.31,5.18-.7,7.31-2.12,3.62-2.42,4.83-7.1,5.62-11.37a208.67,208.67,0,0,0,3.5-36.23c0-2.24-.12-4.76-1.78-6.26s-3.94-1.39-6.05-1.28q-18.06,1-36.11,2.2c-1.83.13-3.8.32-5.19,1.52-1.82,1.58-2,4.3-2,6.7q-.22,20.4-.43,40.8c0,2.34.06,5,1.74,6.59M186,149.43a161.61,161.61,0,0,0-26.57,1.14c-2.95.37-6,.86-8.49,2.46-5,3.21-6.38,9.73-7.35,15.57l-3.42,20.52c-.56,3.38-.84,7.52,1.94,9.53,1.54,1.12,3.59,1.18,5.5,1.2l35.67.31c2.1,0,4.52-.11,5.78-1.78a6.76,6.76,0,0,0,1-3.87q.89-19.2,1.76-38.4c.09-1.89.09-4-1.27-5.35-1.15-1.12-2.91-1.27-4.52-1.33m-83.31,2.14,21.62-3.33c4.54-.7,9.35-1.52,12.77-4.57,2.75-2.46,4.2-6,5.73-9.36A119,119,0,0,1,181.18,87.4c1.56-1.13,3.35-2.66,3-4.57-.48-2.85-4.6-2.76-7.37-1.92-20.63,6.32-42.47,13.42-56.28,30A111,111,0,0,0,111,125.12l-11.78,19.6c-1.2,2-2.27,4.88-.47,6.36,1.06.87,2.6.7,4,.49m145.24-.64c-2-3.65-7-4.1-11.17-4.11l-21.3,0c-3.41,0-7.43.31-9.24,3.21a10.26,10.26,0,0,0-1.07,5.18l-1,35.77a7.58,7.58,0,0,0,.48,3.61c1.29,2.61,4.85,2.84,7.76,2.71l35.21-1.58c1.93-.08,4.12-.29,5.33-1.81s.94-3.47.7-5.29q-2.31-16.75-4.61-33.52a11.82,11.82,0,0,0-1.1-4.15m50.54,101c2.66-.9,5.42-1.87,7.41-3.86,2.42-2.41,3.3-5.93,4-9.28q3.61-16.2,6.12-32.64c.33-2.16-.4-5.39-2.53-4.9a129.41,129.41,0,0,1-30.13,3.22c-3.72-.05-8.15.11-10.12,3.25a10.57,10.57,0,0,0-1.2,3.75q-4.08,22.13-8.17,44.24c-.19,1-.32,2.24.44,3a3.08,3.08,0,0,0,2.2.54c11-.18,21.56-3.75,31.94-7.28m-138,11.63a19.78,19.78,0,0,0,6.28.8l10.93.22c1.88,0,4,0,5.39-1.19s1.89-3.49,2.12-5.48l4.71-40.78c.18-1.55.3-3.29-.7-4.49s-2.8-1.39-4.39-1.45a228,228,0,0,0-36,1.53c-2.22.27-4.79.82-5.74,2.84a6.56,6.56,0,0,0-.35,3.3,101.55,101.55,0,0,0,8.56,34c2,4.41,4.65,9,9.2,10.67m154-98.25c-.61-3.31-1.43-6.82-3.87-9.15-2.14-2.05-5.18-2.82-8.07-3.46a245.84,245.84,0,0,0-31.13-4.79c-3.19-.28-6,2.6-6.72,5.72s0,6.38.8,9.5q3.16,12.61,6.63,25.16c.52,1.85,1.13,3.85,2.68,5s3.35,1.12,5.13,1.12a139.14,139.14,0,0,0,32.45-3.94c1.45-.36,3-.81,3.87-2s.79-2.77.68-4.22a179.41,179.41,0,0,0-2.45-18.91M85.62,221.88q4.66,10.76,9.31,21.52c1.55,3.57,3.15,7.22,5.84,10,5.37,5.61,13.81,6.68,21.54,7.43l13.7,1.32a5.15,5.15,0,0,0,3.6-.54c2.21-1.66.5-5.1-1.08-7.38-6.3-9.1-8.1-20.47-9.74-31.41-.41-2.76-2.77-4.9-5.39-5.88a23.85,23.85,0,0,0-8.26-1H93.64a12,12,0,0,0-5.81,1c-1.75.94-3,3.12-2.21,4.95m42.09-27.73a89.22,89.22,0,0,1,6.07-34.35c.51-1.28-.55-2.75-1.85-3.2a7.75,7.75,0,0,0-4.08.08q-14.8,3-29.6,6.06a10.57,10.57,0,0,0-4.75,1.83c-1.59,1.31-2.25,3.41-2.84,5.38l-5.85,19.67c-1,3.38-1.69,7.76,1.19,9.79a8.4,8.4,0,0,0,3.83,1.15A175.86,175.86,0,0,0,115,201.92c2.78,0,5.65-.18,8.17-1.35s4.64-3.64,4.58-6.42M218.08,315c2.4,3.13,7.2,2.62,11,1.63,27.31-7,53.43-22.76,67.45-47.22.74-1.3,1.45-2.95.64-4.21-1.16-1.8-3.91-.92-5.84,0a47.21,47.21,0,0,1-17.46,4.72c-7.11.5-15.87.2-19.4,6.39A113.28,113.28,0,0,1,218.08,315M299,138c-16.14-17.36-33-35.2-54.79-44.43-3.28-1.38-6-3.78-9.25-5.3s-7.38-2-10.08.31l26.55,32.53a48.61,48.61,0,0,1,6,8.55c1,2.08,1.85,4.4,3.64,5.9s4.44,1.93,6.87,2.23l33.14,4.1c0-1.51-1.06-2.78-2.09-3.89M137.32,272.27l-10.71-.4c-2.72-.11-5.59-.18-8,1.1,16.94,21.39,40.05,40.21,67.23,42.52.67-1.44-1-2.79-2.43-3.53a55.64,55.64,0,0,1-22.64-22.23c-3-5.4-5.36-11.66-10.66-14.81-3.79-2.25-8.39-2.48-12.79-2.65m65.83-146.81c.57,5.11,2.91,11.44,8,11.51l22.49.31c1.74,0,3.77-.1,4.78-1.52,1.12-1.58.27-3.76-.6-5.49-3.71-7.36-7.54-14.78-13-20.93s-12.88-11-21.09-11.73a103.91,103.91,0,0,0-.61,27.85m-23,14.44c3.88-.21,8.55-1,10-4.55a10.35,10.35,0,0,0,.43-4.47q-.77-15.4-1.54-30.8c-.08-1.57-.66-3.64-2.23-3.61a3.18,3.18,0,0,0-1.92,1.08A187.25,187.25,0,0,0,155.31,134c-1.27,2.05-2.35,5.12-.39,6.54a5,5,0,0,0,3.23.57l22-1.19m60.42,134.54c-.71-.85-2-.83-3.1-.74l-26.18,2.24a9.14,9.14,0,0,0-4.62,1.25c-2.39,1.73-2.5,5.18-2.38,8.12l.84,21.28a7.33,7.33,0,0,0,1,4.06c.82,1.15,2.67,1.67,3.65.66q15.38-15.81,29.73-32.57c1-1.23,2.12-3.06,1.09-4.3m-68.53.24a2.4,2.4,0,0,0-1.59.5c-.66.68-.29,1.79.11,2.63,1.38,2.92,2.87,6,5.51,7.83s6.8,2,8.72-.62c2.06-2.78.32-7-2.65-8.81s-6.65-1.72-10.1-1.53M121.6,291.93a16.83,16.83,0,0,0-8.77-9.33A9.41,9.41,0,0,0,121.6,291.93Z" transform="translate(-68.42 -67.63)"/></g></svg>