<svg xmlns="http://www.w3.org/2000/svg" viewBox="0 0 299.12 306.65"><defs><style>.cls-1{fill:#fff;}</style></defs><title>videos</title><g id="videos"><g id="Forme_6" data-name="Forme 6"><path class="cls-1" d="M335.33,111.64c12,22.58,24.21,46,26.09,71.48.9,12.13-.6,24.34-3.14,36.23-3.77,17.59-9.93,34.88-20.08,49.74-10,14.68-23.59,26.57-37.8,37.25-28.43,21.38-61.62,39-97.19,39.56a110.82,110.82,0,0,1-44.14-8.48A141.4,141.4,0,0,1,137,325.58c-24.67-15.94-45.77-37.8-59.12-64S59.19,205,64.74,176.12c3.6-18.68,11.54-36.2,19.42-53.52,2.76-6.07,5.55-12.18,9.28-17.71a120.66,120.66,0,0,1,12.4-14.71c14.08-15,28.6-30.3,47.12-39.22,11.9-5.73,25-8.58,38.11-10.19,23.71-2.9,48.13-1.84,70.9,5.35S305.82,66.87,320.06,86c5.93,8,10.61,16.81,15.27,25.6m-91.2,216.94c30.6-11.22,58.93-29.9,78.57-55.9s30-59.65,24.9-91.84c-5.22-33.12-18.29-65.48-40.46-90.64s-53.88-42.57-87.37-44.26c-29.39-1.48-58.75,9.15-82.23,26.89s-41.35,42.25-53.82,68.91a161.8,161.8,0,0,0-9.52,25.07c-9.39,33.78-3.64,71.25,14.39,101.32s47.87,52.6,81.39,62.92c13.8,4.25,28.35,6.52,42.74,5.21C223.48,335.28,234,332.31,244.13,328.58Z" transform="translate(-62.57 -39.27)"/><path class="cls-1" d="M157,270.54q-.71-23.06-1.4-46.1c-.29-9.35-.58-18.71-.68-28.07a744.82,744.82,0,0,1,3.91-85.53,3.54,3.54,0,0,1,.33-1.37c1-1.87,3.82-.83,5.52.41a966.44,966.44,0,0,0,132.69,81.24c.89.46,1.89,1,2,2,.21,1.25-1,2.22-2.13,2.87l-64.24,38.25c-22.73,13.54-45.5,27.1-69.32,38.64-2.12,1-5.26,1.74-6.36-.35a4.67,4.67,0,0,1-.37-2m5.35-8.42c38.34-25.63,81.22-43.76,120.08-68.59a749.17,749.17,0,0,1-111.68-69.16c-1-.74-2.49-.1-3.11,1a6.68,6.68,0,0,0-.55,3.58c1.07,35.1-1,70.22-3.09,105.28Z" transform="translate(-62.57 -39.27)"/></g></g></svg>