<svg width="19" height="13" fill="none" xmlns="http://www.w3.org/2000/svg"><path d="M.979 7.124h.634v2.66l2.659-2.66h2.445V3.907A1.491 1.491 0 0 1 8.204 2.42h3.234V.979A.979.979 0 0 0 10.46 0H.979A.979.979 0 0 0 0 .979v5.17a.979.979 0 0 0 .979.975zM1.15 1.16h4.574v.47H1.151v-.47zm0 1.013h3.297v.458H1.151v-.458zm0 1.012h2.688v.458H1.151v-.458zm0 1.012h1.945v.458H1.15v-.458z" fill="#000"/><path d="M7.238 3.907v5.17a.979.979 0 0 0 .978.98h6.192l2.66 2.658v-2.659h.63a.979.979 0 0 0 .978-.978V3.907a.979.979 0 0 0-.979-.98H8.204a.979.979 0 0 0-.966.98zm6.72 4.087a.645.645 0 1 1-1.289 0 .645.645 0 0 1 1.29 0zm-2.079 0a.645.645 0 1 1-1.1-.46.649.649 0 0 1 1.109.46h-.009zm-2.079 0a.645.645 0 1 1-1.099-.46.651.651 0 0 1 1.112.46H9.8z" fill="#000"/></svg>