<svg width="19" height="13" viewBox="0 0 19 13" fill="none" xmlns="http://www.w3.org/2000/svg">
<path d="M0.978747 7.12427H1.61304V9.78327L4.27204 7.12427H6.71681V3.90659C6.71792 3.51254 6.87494 3.13496 7.15357 2.85633C7.4322 2.57769 7.80979 2.42067 8.20383 2.41956H11.4383V0.978747C11.4383 0.719167 11.3352 0.470218 11.1517 0.286668C10.9681 0.103117 10.7192 0 10.4596 0H0.978747C0.719167 0 0.470219 0.103117 0.286668 0.286668C0.103117 0.470218 0 0.719167 0 0.978747V6.14972C0.00111096 6.40857 0.104719 6.65644 0.288149 6.83909C0.47158 7.02173 0.719893 7.12427 0.978747 7.12427ZM1.15097 1.15937H5.72546V1.62984H1.15097V1.15937ZM1.15097 2.17173H4.44847V2.62959H1.15097V2.17173ZM1.15097 3.18408H3.83938V3.64195H1.15097V3.18408ZM1.15097 4.19643H3.09586V4.6543H1.15097V4.19643Z" fill="black"/>
<path d="M7.2377 3.9066V9.07758C7.2377 9.33716 7.34082 9.58611 7.52437 9.76966C7.70792 9.95321 7.95687 10.0563 8.21645 10.0563H14.4082L17.0672 12.7153V10.0563H17.6973C17.9569 10.0563 18.2058 9.95321 18.3894 9.76966C18.5729 9.58611 18.676 9.33716 18.676 9.07758V3.9066C18.676 3.64702 18.5729 3.39808 18.3894 3.21453C18.2058 3.03097 17.9569 2.92786 17.6973 2.92786H8.20385C7.94646 2.93117 7.70073 3.03575 7.5199 3.21894C7.33907 3.40213 7.23768 3.64919 7.2377 3.9066ZM13.9587 7.99382C13.9587 8.16483 13.8908 8.32884 13.7699 8.44976C13.6489 8.57068 13.4849 8.63862 13.3139 8.63862C13.1429 8.63862 12.9789 8.57068 12.858 8.44976C12.7371 8.32884 12.6691 8.16483 12.6691 7.99382C12.6691 7.82281 12.7371 7.6588 12.858 7.53788C12.9789 7.41695 13.1429 7.34902 13.3139 7.34902C13.4849 7.34902 13.6489 7.41695 13.7699 7.53788C13.8908 7.6588 13.9587 7.82281 13.9587 7.99382ZM11.8794 7.99382C11.8794 8.16483 11.8115 8.32884 11.6905 8.44976C11.5696 8.57068 11.4056 8.63862 11.2346 8.63862C11.0636 8.63862 10.8996 8.57068 10.7787 8.44976C10.6577 8.32884 10.5898 8.16483 10.5898 7.99382C10.5898 7.82169 10.6582 7.65662 10.7799 7.53491C10.9016 7.4132 11.0667 7.34482 11.2388 7.34482C11.4109 7.34482 11.576 7.4132 11.6977 7.53491C11.8194 7.65662 11.8878 7.82169 11.8878 7.99382H11.8794ZM9.80009 7.99382C9.80009 8.16483 9.73215 8.32884 9.61123 8.44976C9.49031 8.57068 9.3263 8.63862 9.15529 8.63862C8.98428 8.63862 8.82027 8.57068 8.69935 8.44976C8.57843 8.32884 8.51049 8.16483 8.51049 7.99382C8.51049 7.82114 8.57909 7.65553 8.7012 7.53342C8.8233 7.41132 8.98891 7.34272 9.16159 7.34272C9.33427 7.34272 9.49988 7.41132 9.62199 7.53342C9.74409 7.65553 9.81269 7.82114 9.81269 7.99382H9.80009Z" fill="black"/>
</svg>
