<svg height="134" viewBox="0 0 134 134" width="134" xmlns="http://www.w3.org/2000/svg" xmlns:xlink="http://www.w3.org/1999/xlink"><linearGradient id="a" x1="0%" x2="100%" y1="50%" y2="50%"><stop offset="0" stop-color="#801760"/><stop offset="1" stop-color="#67124b"/></linearGradient><g fill="none" fill-rule="evenodd"><path d="m0 0h134v134h-134z" fill="url(#a)"/><path d="m37.57 83v-7.098h-2.814l-.672 3.654c-.084.42-.21.462-.672.462h-10.668v-10.836h11.214v-3.024h-11.214v-10.584h9.744c.462 0 .63.126.714.546l.588 3.234 2.856.168v-6.93h-21.084v2.31l2.646.294c.588.042.672.21.672.84v23.562c0 .63-.084.756-.672.84l-2.646.294v2.268zm23.5359998 0v-2.268l-2.142-.294c-.63-.084-.672-.168-.672-.84v-28.308h-6.426l-.378 2.226 2.52.798c.378.126.546.42.546.84v7.854c-1.638-1.176-3.906-2.016-6.426-2.016-5.04 0-8.778 3.402-8.778 11.676 0 7.728 3.15 10.836 7.938 10.836 3.276 0 5.46-1.47 7.392-3.318l.168.042.336 2.772zm-6.636-6.174c-1.848 1.848-3.864 3.486-6.342 3.486-2.94 0-4.914-1.89-4.914-7.728 0-4.998 1.554-8.442 5.502-8.442 2.226 0 4.494 1.218 5.754 2.268zm34.9179997 6.174v-27.006c0-.63.042-.714.672-.798l2.814-.336v-2.268h-10.164v2.268l2.646.294c.588.042.672.21.672.84v21.798l-14.952-25.242h-8.232v2.31l2.646.294c.588.042.672.21.672.84v23.604c0 .63-.084.756-.672.84l-2.646.294v2.268h10.206v-2.268l-2.814-.336c-.63-.084-.672-.168-.672-.84v-21.966l15.33 25.41zm28.1299995-8.064h-2.688l-.672 3.78c-.084.504-.252.63-.588.756-1.596.672-3.99.882-5.88.882-6.552 0-10.5839997-4.368-10.5839997-12.558 0-8.232 4.2839997-12.6 10.8779997-12.6 1.974 0 3.864.42 5.334.924.42.126.504.378.546.756l.714 3.99 2.856.168v-6.72c-2.1-1.386-5.586-2.268-9.282-2.268-10.0799997 0-15.0779997 6.636-15.0779997 15.75 0 9.24 4.116 15.708 14.3639997 15.708 3.864 0 7.812-.714 10.08-2.226z" fill="#ecf0f1"/></g></svg>