<svg data-name="Layer 1" xmlns="http://www.w3.org/2000/svg" viewBox="0 0 340.7 369.89"><path d="M32.69 321.94c-2.9-3-7.88-1.78-11.71-.15-7.07 3-14.59 7.81-15.79 15.4-.9 5.61 2.14 11.3 6.54 14.89s10 5.39 15.51 6.64c13.39 3 27.23 3.25 41 3.41q133.41 1.53 266.78-4.53c1.61-.08 2.24 2.4 1.2 3.64s-2.83 1.49-4.44 1.65c-94.47 9.28-189.68 5.1-284.6 6.93-13.87.27-29.31.1-39.42-9.41-11.52-10.82-9.88-32.29 3.15-41.25 5.35-3.69 11.84-5.28 18.16-6.79 4.35-1 9.74-1.76 12.54 1.72a5.93 5.93 0 0 1-8.88 7.85zM335.56 11.19a319.28 319.28 0 0 0 5.06 71.05c.66 3.58-2.88 6.4-6 8.3l-38.7 23.82c-2.15 1.32-6 1.91-6.27-.61q21.79-16.38 45.14-30.54a537.11 537.11 0 0 1-5.75-77.57 592.76 592.76 0 0 1-69.74 3c-3.23-.05-5.45 3.12-7.06 5.93l-21.4 37.38c-1.1 1.91-2.11 4.56-.52 6.09l52.26 49.93c9.77 9.34 20.44 21.71 16.58 34.67-2.19 7.33-8.94 12.74-16.35 14.66s-15.34.74-22.54-1.84q-11.94 43.29-23.87 86.58c-2.5 9-11.94 14-20.51 17.82-40.52 18-82.17 33.4-123.79 48.76-9.4 3.47-19.13 7-29.13 6.43a3.58 3.58 0 0 1-2.42-.78c-1.35-1.36 0-3.6 1.33-5l69.43-72.55c15.24 2.45 31.38-10 32.41-25.35s-13.89-30-29.21-28.12-26.25 20.35-20.08 34.5c1.4 3.23-1.39 6.64-4 9.06l-65.6 61.78a4.88 4.88 0 0 1-1.55 1.12c-1.86.72-3.91-1.08-4.22-3s.54-3.91 1.36-5.72a792.14 792.14 0 0 0 50.61-147.71c1.18-5 2.57-10.43 6.64-13.57a22.6 22.6 0 0 1 5.84-2.9l82.18-31.17c-8-3.13-9.26-14.48-5.67-22.3 7.31-15.87 29.9-22.18 44.34-12.43L252.64 3.7c.47-.79 1.14-1.68 2-1.59A292.26 292.26 0 0 0 329.09.06c4.88-.77 6.62 6.2 6.42 11.13M120.09 255.86L69.3 308.07c6.68 1.22 13.2-2.32 19.21-5.49 42.83-22.58 91.66-31.72 134.82-53.66 2.76-1.41 5.94-3.68 5.45-6.74a1041.89 1041.89 0 0 0-34.76-147.91q-32.73 42.69-65.45 85.4a31.15 31.15 0 1 1 14.86 60.4c-9.39 1.75-16.68 8.95-23.34 15.79m-14.51-30.82c2.06-1.92 4.3-4.56 3.3-7.18a28.21 28.21 0 0 1 17.94-36.95c-1.27-3.47 1.26-7.08 3.61-9.93q29.34-35.5 55.78-73.27c2.11-3 4.78-6.35 8.45-6.39-2.25-3.55-7.66-2.1-11.45-.29a476.46 476.46 0 0 1-74.49 28.12c-4.19 1.19-9.08 3-10.08 7.23a878.78 878.78 0 0 1-51.87 153.4l58.81-54.74m86.87-163.72c-3.08 3.53-5.8 7.94-5.23 12.59s4.44 8.37 8 11.59c16.29 14.74 31.61 30.51 46.37 46.77 7.05 7.78 14.41 16 24.28 19.55s23 .59 27-9.11c2.38-5.74 1.05-12.48-2-17.89s-7.65-9.76-12.17-14l-59.2-55.76c-3.77-3.55-9.64-4.23-14.58-2.68s-9.07 5-12.47 8.94m51.47 125.43c2.65-8.5 6.3-16.65 8.9-25.17 1.31-4.29 2.13-9.55-1-12.75L200.3 96.24c-1.54 2.11-.83 5-.06 7.55a1043.56 1043.56 0 0 1 30.9 131.28c6.38-15.41 7.8-32.4 12.77-48.32m-73.29 88.19a10.41 10.41 0 0 0 7-2.65 6.77 6.77 0 0 0-7 2.65z" fill="#fff" data-name="Forme 7"/></svg>