<svg viewBox="0 0 294.7 96.13" xmlns="http://www.w3.org/2000/svg"><g fill="#731454"><path d="M24.97 40.53c.34.59 1.16.63 1.84.59l22.12-1.22c2.32-.12 5.22.09 6.12 2.23a5.71 5.71 0 0 1 .19 2.76l-.82 8.73a3 3 0 0 1-.51 1.62 1 1 0 0 1-1.52.1c-1.06-1.5-3.19-1.62-5-1.59q-10 .16-20 .81a2.05 2.05 0 0 0-1.4.45 2.09 2.09 0 0 0-.45 1.47l-.28 19.64a8.06 8.06 0 0 0 .46 3.49 2.79 2.79 0 0 0 2.82 1.77 118.64 118.64 0 0 1 26.41-1.44c1.28.07 1.89-1.56 1.94-2.85s.14-2.87 1.32-3.39a3.2 3.2 0 0 1 1.33-.16l5 .13c1 0 2.14.16 2.57 1a2.67 2.67 0 0 1 .16 1.32l-.86 17.35a3.16 3.16 0 0 1-.78 2.35 3.21 3.21 0 0 1-2.35.4 378.09 378.09 0 0 0-53.95-1.15 4.93 4.93 0 0 1-4.79-5 6.4 6.4 0 0 1 4.56-5.65 3 3 0 0 0 1.44-.68 2.49 2.49 0 0 0 .42-1.64q.69-32.65 1.39-65.32l-11-.89a1.58 1.58 0 0 1-.86-.23 1.71 1.71 0 0 1-.46-1.5L.2 8.3a3.63 3.63 0 0 1 .34-1.79c.63-1 2-1.14 3.22-1.16l54.37-.66c1.26 0 2.67 0 3.57.92a4.78 4.78 0 0 1 1 3.08 116.23 116.23 0 0 1 .18 13.46 3.26 3.26 0 0 1-.58 2 2.65 2.65 0 0 1-1.15.69 7.35 7.35 0 0 1-9.24-5.45c-.12-.66-1-.86-1.63-.9a180.17 180.17 0 0 0-22.54-.25 3.55 3.55 0 0 0-2.22.63 3.55 3.55 0 0 0-.78 2.77l.06 17.94a1.84 1.84 0 0 0 .17.93m9.11 7.2l4.09-3.86a3.71 3.71 0 0 0-4.09 3.86m-15.15 35a8.63 8.63 0 0 0 3.05-4.87 6 6 0 0 0-3.05 4.87m34.16-71.74l1.14-1.45c.18-.23.36-.55.19-.78s-.54-.14-.79 0a3.63 3.63 0 0 0-1.81 3.5 2.36 2.36 0 0 0 1.26-1.3m-33.33 44.5a4.51 4.51 0 0 1 1.14-1.72c-.14-.61-1.09-.23-1.46.28a14.44 14.44 0 0 0-1.72 3 1.86 1.86 0 0 0 1.83-1.58m26.71 30.44c1.07-.37 2.13-.77 3.17-1.21a2.92 2.92 0 0 0-3.9.88.6.6 0 0 0 .73.33m15.45.38a3.11 3.11 0 0 0-1.16 1 1.05 1.05 0 0 0 .2 1.4c.07-.53.61-.86 1.08-1.13s1-.67.95-1.21-1-.71-1-.17m-45-47.78a2 2 0 0 0-.68 1.79 3.15 3.15 0 0 0 2.15-2.53.65.65 0 0 0-.61-.4 2.76 2.76 0 0 0-.87 1.13M4.37 13.24l1.64-.32a2.25 2.25 0 0 0-3.23-.14 1 1 0 0 0 1.52.46m12.48 58.51a.82.82 0 0 0 0 1.36 9.28 9.28 0 0 0 1.86-3.09 2.23 2.23 0 0 0-1.8 1.66m27.45 20.06l1.43-.72a3.12 3.12 0 0 0-3.69.54 5.28 5.28 0 0 0 2.27.19m18.72-8.51l.3-.86a.71.71 0 0 0-.63-.37 2.51 2.51 0 0 0-1 1.17c-.14.49.17 1.13.67 1.12l.76-1M22.22 9.98a2.44 2.44 0 0 0-1.26 2.33 4.06 4.06 0 0 0 1.95-2 1.14 1.14 0 0 0-.72-.42m-.93 17.79c-.5.24-.21 1.18.33 1.1a1.51 1.51 0 0 0 .67-2l-1.1.72m39.07-12.83v-1.43a.9.9 0 1 0 .15 1.62M25.24 90.24a3.05 3.05 0 0 0 1.64-2.19 2.48 2.48 0 0 0-1.69 2.13M57.24 8.49a1 1 0 0 0 1.78-.16 1.2 1.2 0 0 0-1.92.12m-14.26-.21c-.72-.16-1.78-.1-1.84.63a2.35 2.35 0 0 0 1.27.21.82.82 0 0 0 .68-.94M21.48 85.89a2.11 2.11 0 0 0-.94 1.22 1.49 1.49 0 0 0 1.68-1.25c-.08-.33-.68-.3-.74 0m-5.43-59.7c0-.4-.61-.57-.91-.29a1.29 1.29 0 0 0-.26 1.15 1 1 0 0 0 .71.14l.43-1m-.17 5.41l-.46-.94c-.43.14-.84.57-.72 1s1 .43.93 0m5.73-.72a1.11 1.11 0 0 0-.43.72 1.07 1.07 0 0 0 .71.42 1 1 0 0 0 .43-1 .93.93 0 0 0-.71-.13M14 58.58a.58.58 0 0 0 .16 1l1-.66a.88.88 0 0 0-1.17-.36m7.19-10a.43.43 0 0 0 .14-.71 1.31 1.31 0 0 0-1 1.34.62.62 0 0 0 .87-.59m1.17 11.46c-.36.11-.1.73.27.71s.62-.38.81-.7a.59.59 0 0 0-1.06 0M2.96 8.82a.61.61 0 0 0-.3.85.94.94 0 0 0 .67-.37c.12-.24-.14-.61-.36-.47m11.57 45.18c.07-.32-.1-.83-.38-.66s.06 1 .42.68zm125.63 31.44a3.62 3.62 0 0 1 .05-2.37c.62-1.21 2.26-1.33 3.61-1.35a9.13 9.13 0 0 0 4-.75 3.57 3.57 0 0 0 2.07-3.26q-2.67-31.14-2.93-62.42c0-1-1.12-1.67-2.13-1.81a13.86 13.86 0 0 1-3-.33c-2.65-1-2.47-4.76-1.79-7.51a4.07 4.07 0 0 1 .73-1.72 4 4 0 0 1 2.81-1l19-1.45c.66-.06 1.18.53 1.58 1.06 15.29 20.25 25.57 43.82 39.84 64.8a503 503 0 0 1-.14-52.53c0-.88-1-1.43-1.89-1.33a25.92 25.92 0 0 0-2.51.78c-2.4.55-4.79-1.43-5.59-3.75s-.44-4.87-.06-7.3c.26-1.68 2.43-2.14 4.13-2.22l23.79-1a4.87 4.87 0 0 1 3.51.77c1.82 1.63.31 4.78 1.29 7s-1.84 4-4.15 4.31-5.15.39-6.18 2.47a5.75 5.75 0 0 0-.39 2.64q.24 34.32 1.63 68.63c.06 1.5.21 3.19 1.39 4.11-4.82 2.45-10.56 1.81-15.92 1.12a3.73 3.73 0 0 1-2.58-1.07 4.19 4.19 0 0 1-.58-1.47 28 28 0 0 0-3.88-7.57q-17.98-27.69-34.64-56.17a342.34 342.34 0 0 0 .35 53.68c.14 1.67 2 2.65 3.67 2.8s3.39-.2 5 .25 3.06 2.25 2.28 3.75c-1.39 2.71 1.32 6.52-.64 8.84-1.12 1.31-3.1 1.3-4.82 1.19l-23.36-1.6a2.68 2.68 0 0 1-1.67-.5 2.72 2.72 0 0 1-.63-1.46l-1.27-6.25m59.79-19.83a1.11 1.11 0 0 0-1.38 0 3.17 3.17 0 0 0-.9 1.17l-2.38 4.32c.12.55.95.15 1.26-.32l3.4-5.14m8.6-61.11c-.27-.67-1.29-.27-1.81.23a44 44 0 0 0-4.48 5c.28.37.87.06 1.2-.27zm4.05 7.35c-.82-.32-1.62.49-2.08 1.24a19.89 19.89 0 0 0-1.71 3.5c.18.38.75 0 1-.33l2.82-4.41m-21.63 43.8c.31-.41.62-1 .24-1.38a24.1 24.1 0 0 0-3.8 4.57c.08.57 1 .22 1.31-.24zm4.62 11.35l2.19-3.26a.81.81 0 0 0 .2-.55c0-.23-.25-.38-.45-.5l-2 2.68c-.38.53-.62 1.48 0 1.63m-34.77-56.81a.81.81 0 0 0 .09-.5.45.45 0 0 0-.28-.33 19.57 19.57 0 0 0-2.8 4 6.32 6.32 0 0 0 3-3.19m18.32 21.4l.63-.7a2.16 2.16 0 0 0-2.86 2.32 9.94 9.94 0 0 0 2.14-1.67m16.24 27.67c-.27-.32-.77 0-1.05.31-.7.78-1.39 2.06-.59 2.75l1.49-2.19c.18-.26.36-.63.15-.87m-41.64 16.9a4 4 0 0 0 1.72-3.9 5.4 5.4 0 0 0-1.72 3.88m59.42-9.68a1.7 1.7 0 0 0-.63 2 2.46 2.46 0 0 0 1.74-2.43.77.77 0 0 0-1.14.3m-28-24l.93.88a1.89 1.89 0 0 0-.7-2.23 1.31 1.31 0 0 0-1.55.36l1.29 1m-20.44 43.92l1.41-1.1c.36-.29.12-1-.33-1.07a1.07 1.07 0 0 0-1.12.64 3.25 3.25 0 0 0-.22 1.36m-7.22-18a1.48 1.48 0 0 0 .36 1.56 1.76 1.76 0 0 0 .3-2.62l-.72 1m30.42-20.17a1.39 1.39 0 0 0 .78-1.79 1.37 1.37 0 0 0-1 2m26.28-6.81a.66.66 0 0 0-.05-1.13 2.38 2.38 0 0 0-.9.88.82.82 0 0 0 .3 1.09l.72-.72m-57.52-25.34a2.78 2.78 0 0 0 1.51-2 2 2 0 0 0-1.63 2m-4.7 36.19c-.76.44-.68 1.85.17 2a2.25 2.25 0 0 0-.07-1.93m38.58 15.46a1.07 1.07 0 0 0 .67-1.38.76.76 0 0 0-1.06.25.75.75 0 0 0 .39 1m25-59.38a.68.68 0 0 0-.33-.87l-1 1a.75.75 0 0 0 1.24-.18m-30.38 31.06a.76.76 0 0 0-1.25.13.7.7 0 0 0 1.3-.13m-21.58-24.28c0-.28-.45-.35-.67-.17a1.25 1.25 0 0 0-.32.76.59.59 0 0 0 .82-.6m1.62 9.64a.63.63 0 0 0-.32-.85.92.92 0 0 0-.41.69.47.47 0 0 0 .72.16m43.87 62.55c-.24.38.5.83.73.45s-.35-.47-.68-.4m-2.15-64.47c-.17.13.12.4.3.29s.21-.36.21-.57-.62 0-.49.26zM82.29 89.01a29 29 0 0 1-8.87-15.23 50.44 50.44 0 0 1-.68-17.8c.75-6.34 2.32-12.73 5.91-18a26.56 26.56 0 0 1 35.89-7.74l.69-8.8a16.7 16.7 0 0 0-.22-5.82 5.65 5.65 0 0 0-3.78-4.1c-2.71-.66-3-4.36-2.68-7.13a3.32 3.32 0 0 1 .56-1.78 3.38 3.38 0 0 1 2.51-.85l13-.66a3.28 3.28 0 0 1 1.65.2c1.28.64 1.18 2.46 1 3.87-1 6.16-.87 12.43-.75 18.67l1.02 53.61c0 1.82.6 4.2 2.41 4.28 4.58.19 7.29 5.38 7.66 10a3.18 3.18 0 0 1-.09 1.27c-.58 1.62-2.91 1.34-4.58.93a21.67 21.67 0 0 0-7.78-.42c-2 .26-4 .78-5.93.15s-3.35-3.07-2.14-4.66c.53-.7-.37-1.74-1.25-1.69a3.93 3.93 0 0 0-2.22 1.3c-8.45 7.69-22.69 7.89-31.35.45m32.76-45.36c-4.86-3.23-10.68-6.33-16.27-4.64s-8.83 7.72-10.08 13.48a31.4 31.4 0 0 0 .69 16.7 18.34 18.34 0 0 0 5 7.85 11.45 11.45 0 0 0 8.62 3c4.72-.52 8.3-4.39 11.31-8.07a4.16 4.16 0 0 0 1.18-2.36q.27-11.53.55-23.07c0-1.07 0-2.32-.93-2.91m-7.72 39.37a1 1 0 0 0-1.22 0 3.5 3.5 0 0 0-.76 1.09 7.7 7.7 0 0 1-3 2.92c-.19.48.7.51 1.12.21a14 14 0 0 0 3.85-4.27M77.54 55.32a1 1 0 0 0-1.52.06 2.89 2.89 0 0 0-.57 1.63l-.28 2.15a8.94 8.94 0 0 0 2.37-3.84m23.26-22.64a1.67 1.67 0 0 0 .15-.93.94.94 0 0 0-.39-.55 3.08 3.08 0 0 0-.89 4.1 27.57 27.57 0 0 0 1.13-2.62m20.4 38.66a1.47 1.47 0 0 0 0 .75.83.83 0 0 0 .28.42 5 5 0 0 0 1.15-4.19 6.65 6.65 0 0 0-1.43 3m3.6-6.43l-.06-1a3 3 0 0 0-1.55 3.25 3.23 3.23 0 0 0 1.57-2.27m6.81 23.08c.46.5 1.33-.31 1.12-1s-.94-1-1.58-1.19a2.52 2.52 0 0 0 .62 2m-50.6-47.42a2.29 2.29 0 0 0-1.59 2.61 2.61 2.61 0 0 0 1.64-2.61m-5.37 22.13a1.42 1.42 0 0 0-.49-1.14 2.09 2.09 0 0 0 0 2.59.92.92 0 0 0 .51-1.44m39.57-27.24a1.93 1.93 0 0 0-1.13 2.28 1.64 1.64 0 0 0 1.21-2m8.76 25.62a1.1 1.1 0 0 0 .17-1.81 2.5 2.5 0 0 0-1 1.85.75.75 0 0 0 .9 0m-47.21-8.4a1.25 1.25 0 0 0 0-1.79 2 2 0 0 0-.83 1.31c0 .53.68 1 1 .64m46.45 2.52a2.16 2.16 0 0 0-.32 1.42 1 1 0 0 0 .71.13 2.53 2.53 0 0 0 .43-1.87.56.56 0 0 0-.81.32m-.19-45.76c.92 0 1.3-1.45.61-2.06a1.82 1.82 0 0 0-.64 2M86.67 34.78c-.19.38.31.89.69.7l.72-1.24a1.21 1.21 0 0 0-.74-.44l-.7 1m3.9-2.56a1.48 1.48 0 0 0 1.58-.39 1.84 1.84 0 0 0-1.36-.49c-.49.11-.75.9-.29 1.1m10.41 51.28a.52.52 0 0 0 0 1 1.45 1.45 0 0 0 1.35-.93l-1.35-.15m-11.2-6.79a1.14 1.14 0 0 0-1 1.67 1.91 1.91 0 0 0 1.11-1.73m-5.25-35.26a1.07 1.07 0 0 0-.35 1.1 3.24 3.24 0 0 0 1.26-2.57 3 3 0 0 0-1 1.43m-8.23 26.21c.41-.24.11-1-.34-.91a1.06 1.06 0 0 0 0 1.69 1.06 1.06 0 0 0 .42-.72m30.85-35.54a1 1 0 0 0 1-1.17c-.56-.41-1.43.48-1 1m11.65-14.53a1 1 0 0 0-.71-.41.82.82 0 0 0 0 1.4 1.89 1.89 0 0 0 .72-1M90.54 40.98a1.81 1.81 0 0 0 1-.74.7.7 0 1 0-1.1.85m-5.34 3.92a.8.8 0 0 0-.31 1.14c.39-.13.84-.3 1-.69s-.47-.84-.69-.49m38.19-31.59a.63.63 0 0 0 .25.86.92.92 0 0 0 .41-1 .45.45 0 0 0-.69.16m-7.35-1.58c.29.26.8-.27.52-.54a.42.42 0 0 0-.66-.13.42.42 0 0 0 .15.66z"/><path d="M277.25 78.95a9.89 9.89 0 0 0 7.29-10.89c-.27-1.58 1-3.09 2.55-3.63a10.37 10.37 0 0 1 4.77-.14 2.64 2.64 0 0 1 2.87 3.27l-.06 18c0 1.92-.45 4.41-2.35 4.74l-9.82 1.73c-3.29.58-6.57 1.16-9.9 1.43a49.55 49.55 0 0 1-33.87-9.54c-9.54-7.28-16-18.69-16.59-30.67a56 56 0 0 1 .47-9.69c1.38-11.2 4.9-22.66 12.9-30.62 5.94-5.91 14-9.44 22.22-10.91s16.73-1 25 .36c3.26.52 6.57 1.2 9.36 3a2.34 2.34 0 0 1 .87.81 2.65 2.65 0 0 1 .18 1.37l-1 17.08a3.73 3.73 0 0 1-.91 2.7c-1.88 1.6-4.9-1.53-7.09-.38-1.53.81-3.3-1-3.48-2.69s.53-3.42.51-5.15a7.87 7.87 0 0 0-4-6.34 14.94 14.94 0 0 0-7.53-1.8c-9.43-.12-18.6 4.75-24.51 12.1s-8.67 17-8.51 26.39c.13 7.43 2.25 15.24 7.73 20.27 3.35 3.08 7.67 4.87 12 6.3a55.61 55.61 0 0 0 17.5 3.19 15.48 15.48 0 0 0 3.4-.31m-50.08-41.54c-.81 1-1.73 2.33-1 3.39l10.15-14.95c.27-.4.54-.94.25-1.32-.46-.62-1.39.11-1.76.78l-1.35 2.39a63.8 63.8 0 0 1-6.26 9.71m9.21-9.58c-.27.42-.48 1.11 0 1.33l10.64-13.32c-.49-.25-1 .17-1.44.56a74.7 74.7 0 0 0-9.17 11.43m42.49 59.12a5.27 5.27 0 0 0-3.73.17c-.6.26-1.23.79-1.12 1.44a14.91 14.91 0 0 0 4.85-1.61m-37.26-70.69a1.11 1.11 0 0 0 .22-.62.62.62 0 0 0-.32-.49c-1.35 1.25-2.77 2.61-3.16 4.41a10.18 10.18 0 0 0 3.26-3.3m46.69 5a2.52 2.52 0 0 0-1.61 2.31 4.45 4.45 0 0 0 2.55-2 .91.91 0 0 0-1-.39m-34.47 58.4a7.35 7.35 0 0 0-.93 2.61 7.89 7.89 0 0 0 2.24-2.93c-.08-.59-1-.22-1.31.3m-20.46-44.5l.85-1.63a2.38 2.38 0 0 0-2.21 2.57 1.79 1.79 0 0 0 1.31-1m8.92 44.86c.07-.59.08-1.32-.44-1.59a2.84 2.84 0 0 0 .36 3.56 3.28 3.28 0 0 0 .06-2m-15.75-35.29a.72.72 0 0 0 .13-1.05 2.08 2.08 0 0 0-1.1 2.71 3.26 3.26 0 0 0 .94-1.66m6.15-19a2.07 2.07 0 0 0-1.44 2.27 2.53 2.53 0 0 0 1.62-2.05m-3.34 20.9a2.87 2.87 0 0 0 .3-2.65 3.64 3.64 0 0 0-.94 2.57l.69.17m57 22.22a1.12 1.12 0 0 0 .4 1.29 2.11 2.11 0 0 0 .68-2.21.85.85 0 0 0-1 .89m-30.3 11.5v.92a1.25 1.25 0 0 0 1.39-1.52 1 1 0 0 0-1.29.62m-31.61-31.32v.89l.66.11c.39-.7.59-1.89-.2-2.05a1.18 1.18 0 0 0-.46 1.05m3.87 1.83a2 2 0 0 0 1-2 1.71 1.71 0 0 0-1.2 2.19m3-9.41a1.92 1.92 0 0 0 1.12-1.49c-.8-.37-1.74.82-1.19 1.51m58.19-30.25a.94.94 0 0 0 .9-1.25 1.7 1.7 0 0 0-1.09.42c-.27.3-.2.89.19 1m1.28 65a2 2 0 1 0 .08-.2M249.54 8.48c.55.08 1.36-.13 1.25-.67a.84.84 0 0 0-1.34.7m39.86 8.43c-.35.12-.07.74.3.71s.62-.39.81-.71a1.21 1.21 0 0 0-1.14 0M278.58 10c-.25.51.61 1.05 1 .62 0-.43-.52-.82-.86-.55m-30.87-1.05a.6.6 0 0 0 .29-.86 1.77 1.77 0 0 0-1 .76.47.47 0 0 0 .72.16m35.56 14.36a1.48 1.48 0 0 0 .64.85.53.53 0 1 0-.6-.86z"/></g></svg>