<svg xmlns="http://www.w3.org/2000/svg" viewBox="0 0 327.23 254.68"><defs><style>.cls-1{fill:#fff}</style></defs><g id="videos"><g id="Forme_5" data-name="Forme 5"><path class="cls-1" d="M142.2 179.58c-3.94-15.09-4-30.89-4-46.49v-13.88a6.76 6.76 0 0 1 .34-2.61c.91-2.21 3.7-2.81 6.08-3.08a284.38 284.38 0 0 1 57.31-.59c1.93.18 4 .45 5.38 1.8a8.4 8.4 0 0 1 1.88 4.16 160.42 160.42 0 0 1 3.46 54.5 5.64 5.64 0 0 1-.6 2.3c-.71 1.17-2.14 1.64-3.46 2a164.88 164.88 0 0 1-62.27 5.35 5.07 5.07 0 0 1-2.94-1 5 5 0 0 1-1.22-2.51m60.87-10.47a186.85 186.85 0 0 0-3.66-41.81 8.49 8.49 0 0 0-1.67-4.13c-1.24-1.38-3.2-1.81-5-2.13a119.51 119.51 0 0 0-43 .47 3.75 3.75 0 0 0-2.31 1c-.85 1-.45 2.53-.07 3.79 3.76 12.61 1.06 26.21 2.8 39.25.37 2.74 1.94 6.21 4.66 5.73 15.15-2.68 31 4.77 45.88.81a3.23 3.23 0 0 0 1.88-1 3.42 3.42 0 0 0 .53-1.93z" transform="translate(-32.48 -69.37)"/><path class="cls-1" d="M37.93 280.12c-6.17-54.58 4.1-110.37-5.4-164.47-.59-3.32 4.22-4.54 7.59-4.29l60.5 4.39Q98.28 97.81 96 79.86c-.48-3.66.32-8.88 4-8.83q125.64 1.68 251.27-1.66c2.61-.07 3.62 3.33 3.8 5.93a1835.69 1835.69 0 0 1 2.49 219.7c-.36 7.39-5.4 13.93-11.67 17.85s-13.64 5.63-20.92 6.92c-35.66 6.34-72.2 4.38-108.36 2.41l-133.36-7.32c-14.61-.8-31.39-2.76-39.53-14.92-3.87-5.78-5-12.91-5.79-19.82m57.15 24.57q99.3 4.37 198.64 8c12 .45 24.31.83 35.55-3.32 6.78-2.5 13.34-7.11 15.61-14C346 292.09 346 288.5 346 285l-.74-200.3a2.58 2.58 0 0 0-3.1-3.17l-47.31-1c-61.06-1.29-122.14-2.57-183.2-1.16q3.16 45.93 2 92c-.24 9.56-.62 19.12-.2 28.67.82 18.58 4.66 37 3.89 55.6s-7.14 38.22-22.26 49m-42.6-24.33c.32 5.51.78 11.38 4.15 15.75s9.16 6.38 14.7 7.1a24 24 0 0 0 8.74-.23c5.7-1.39 10.25-5.89 13-11.07s4-11 5-16.81c8.75-49.05 6.91-99.34 3.29-149-.09-1.24-.64-2.88-1.87-2.72a207.56 207.56 0 0 1-49.69.76c-1.43-.15-2.1 1.7-2.27 3.12-2.7 23-1.35 46.29 0 69.43l4.91 83.7M332.25 76.75a1.11 1.11 0 0 0 .87-.47.58.58 0 0 0-.08-.58l-5 .39c1 1.12 2.71.94 4.16.66m-18.64-1.25a2.08 2.08 0 0 0 3.32-.45 3.6 3.6 0 0 0-3.44.21m8.63.64a1.16 1.16 0 0 0 1.87-.39 1.25 1.25 0 0 0-1.87.46z" transform="translate(-32.48 -69.37)"/><path class="cls-1" d="M307 225.68c-6.68-2.35-14-2-21-1.74q-44 1.76-88-.56c-16.19-.85-32.46-2.1-48.56-.2-3.89.46-9.09.3-10.15-3.47 2.29-2.83 6.46-3 10.1-3l85.73 1.33 67.8 1c2.29 0 4.88.21 6.33 2s-.09 5.4-2.25 4.64zm7.47-47.8a4.37 4.37 0 0 1-3.22.91l-64.15.79a9.93 9.93 0 0 1-4.91-.78c-1.47-.8-2.48-2.7-1.73-4.2.84-1.68 3.14-1.83 5-1.75q31.46 1.26 63-.08c1.71-.07 3.53-.12 5 .76s2.19 3.11 1.01 4.35zm-8.04 90.17c2.25.08 5.4 1.69 4.2 3.6-.58.92-1.86 1-2.95 1l-160.21-.37a7.72 7.72 0 0 1-3.82-.66 2.64 2.64 0 0 1-1.29-3.29c.64-1.22 2.28-1.38 3.65-1.4 53.48-.46 106.99-.93 160.42 1.12zm-54.04-146.63l52.48.28a8.28 8.28 0 0 1 3.61.55 2.89 2.89 0 0 1 1.77 2.93c-.37 1.89-2.86 2.31-4.79 2.31q-29.1-.06-58.21.9c-2.32.07-3.05-3.59-1.41-5.24s4.23-1.75 6.55-1.73z" transform="translate(-32.48 -69.37)"/></g></g></svg>