<svg id="Layer_1" data-name="Layer 1" xmlns="http://www.w3.org/2000/svg" viewBox="0 0 235.91 269.63"><defs><style>.cls-1{fill:#010101}</style></defs><g id="Shape_49" data-name="Shape 49"><path class="cls-1" d="M156.8 163a79.93 79.93 0 0 1-15 5.33c-2.84.7-6.93.47-7.39-2.43 7.42-7.06 16.5-14.67 26.58-12.88 8.07 1.43 14 8.84 16.22 16.73s1.37 16.27.53 24.42l-1.64 15.91a11.47 11.47 0 0 1-1.39 5.18c-1 1.5-3 2.49-4.64 1.71s-2.77-3.24-4.57-2.79l-9.9 2.49c-6 1.5-12.52 3-18.14.42-6.81-3.08-10-12.3-6.56-18.93a22.66 22.66 0 0 1 5.54-6.46c6.44-5.55 14.76-9.87 23.17-8.63 3.08.46 6.7 1.49 8.95-.66s1.47-5.58.64-8.43c-.9-3-1.84-6.16-3.92-8.55s-5.63-3.78-8.48-2.43m7.46 36.44a6 6 0 0 0-2-4.35c-2.86-2.81-7.36-3.47-11.23-2.45s-7.22 3.49-10.13 6.24a10 10 0 0 0-2.94 4 4 4 0 0 0 1.29 4.5c7.28 4.58 17.89 2.77 23.23-4a7.1 7.1 0 0 0 1.78-3.94zm-9.32-77.02a16.35 16.35 0 0 1 4.7 4.71c1.1 2 1.27 4.6-.19 6.29s-4.42 1.91-6.67 1.1c-7.15-2.56-10-11.62-16.88-14.93-2-1-4.3-1.4-6.34-2.38s-3.92-2.79-4-5c-.09-3.09 3.42-5.29 6.5-5s5.73 2.23 8.19 4.1z" transform="translate(-82.05 -57.85)"/><path class="cls-1" d="M91.69 255c-3.69-6-4.69-13.26-5.43-20.26a735.58 735.58 0 0 1-1.47-142.16c1-11.72 3.32-25.09 13.37-31.21 6.76-4.12 15.24-3.73 23.14-3.2l31 2.07c8.69.58 18 1.39 24.78 6.82 6.64 5.29 9.5 13.85 13.45 21.36s10.64 15 19.13 14.68a433.83 433.83 0 0 1 83.51 4.76c4.67.72 9.65 1.67 13 5 2.37 2.33 3.62 5.54 4.65 8.7 5.49 16.93 6.15 35 6.54 52.79q1.45 64.79-.74 129.58c-.35 10.24-12.16 15.62-22.15 17.92a222.09 222.09 0 0 1-83.28 3.08c-11.8-1.81-25.46-6.36-28.74-17.84-2.14-7.49 1-15.35 1.61-23.12s-3.84-17.48-11.62-17l-33.59 2.14c-8.62.54-17.38 1.08-25.84-.68S96.27 262.29 91.69 255m87.11-3.54c6 4.11 13.72 4.6 21 5l41.65 2.06c1.57.08 3.29.12 4.56-.82 2.36-1.74 1.62-5.41.62-8.17A1186.57 1186.57 0 0 0 171 81.8c-1.47-2.68-3.07-5.48-5.7-7s-6.14-1.55-9.32-1.44l-33.35 1.12c-5.12.17-10.4.38-15.06 2.5s-8.62 6.66-8.44 11.78q2.13 59.9 4.27 119.8c.39 10.84 1.15 22.67 8.45 30.71 6.8 7.5 17.52 9.71 27.49 11.51 7.92 1.44 16.1 2.87 24 1.16 5.23-1.13 11.11-3.52 15.53-.51m54.66-69.54c1.27 3.09 2.64 6.32 5.27 8.39s6.89 2.46 9.06-.09c4.86-5.74 15-3.32 19.42 2.73s4.9 14.08 5.16 21.6l.94 26.83c.14 3.94-1 9.3-4.93 9.3-3.42 0-4.93-4.15-6.17-7.33s-5.09-6.51-7.56-4.14l8 26.69c1 3.48.54 9-3.07 8.61-4.85-.53-8.76 3.69-11.79 7.52l-22.25 28.13c-1.55 2-3 5-1.15 6.65a4.93 4.93 0 0 0 3.32.81 332.77 332.77 0 0 0 59.19-5.29c2.67-.49 5.65-1.22 7-3.56a9.54 9.54 0 0 0 .95-4.24q2.13-32.61 4.28-65.2c1.19-18.14 2.39-36.33 1.36-54.48a222.75 222.75 0 0 0-6.75-43.17c-1.25-4.84-2.86-9.95-6.74-13.11-2.57-2.09-5.85-3.08-9-4A339.9 339.9 0 0 0 219 113.67c-4.42-.42-9.67-.4-12.3 3.17l26.75 65m-39.1 116.37c-.08 3.15-.14 6.43 1.12 9.32s4.23 5.3 7.36 4.84c2.4-.35 4.25-2.22 5.91-4l29.7-31.48c1.15-1.23 2.36-2.55 2.61-4.21s-1-3.64-2.64-3.48a98.59 98.59 0 0 1-24.33-.74 39.22 39.22 0 0 0-15.52.69c-3.26 2.28-3.66 6.86-3.76 10.84l-.45 18.2m58.2-88c3 0 6.44-.29 8.4-2.6s1.45-6.33-.78-8.55a10.25 10.25 0 0 0-8.77-2.41 10 10 0 0 0-6.93 4c-1.5 2.31-1.5 5.68.46 7.62s4.92 2 7.62 1.91m-131.72 48.11c.71-1-.46-2.25-1.49-2.92l-11.41-7.42c-1.59-1-4.27-1.77-4.94 0a17 17 0 0 0 16 11 2.18 2.18 0 0 0 1.8-.67m138.23-35.22a4.57 4.57 0 1 0-4.79 5 4.73 4.73 0 0 0 4.79-5m35.1-102.73c.51 2.39 4.79 2.31 5.21-.09-.33-.72-.66-1.44-1-2.16a4 4 0 0 0-4.08 2.15z" transform="translate(-82.05 -57.85)"/></g></svg>