<svg data-name="Layer 1" xmlns="http://www.w3.org/2000/svg" viewBox="0 0 24.77 22.18"><path d="M12.44 21.04a19.15 19.15 0 0 1-6 1.14 8.94 8.94 0 0 1-5.72-1.9 1.64 1.64 0 0 1-.64-.9.68.68 0 0 1 .54-.83 6.53 6.53 0 0 0 3.8-1.48 4.68 4.68 0 0 1-2.31-2.28 1.58 1.58 0 0 1-.16-.59.87.87 0 0 1 1.31-.65 21.75 21.75 0 0 1-2.77-3.5 2.07 2.07 0 0 1-.44-1.64c.19-.56 1.13-.77 1.32-.22A7.73 7.73 0 0 0 .5 5.68a3.63 3.63 0 0 1-.33-2.59 1.52 1.52 0 0 1 2.15-.93 60 60 0 0 0 7 4.15c.51.26 1.43.28 1.38-.3A5.77 5.77 0 0 1 14.06.44a5.78 5.78 0 0 1 6.39 1.35c.33.37.94 0 1.23-.41s.67-.91 1.15-.77.52 1 .82 1.44.71.59 1 1 .13 1.09-.33 1a1.23 1.23 0 0 0-1.24 1.06 5.47 5.47 0 0 0 .09 1.8c.41 3.48-1.81 6.67-4 9.4a15.47 15.47 0 0 1-2.95 3 13.5 13.5 0 0 1-3.76 1.72M2.19 19.54a6.39 6.39 0 0 0 3.2.94 15.83 15.83 0 0 0 15.42-9.63 7.62 7.62 0 0 0 .64-2.69c0-1.16-.27-2.49.5-3.36-1.9-.12-3-2.28-4.75-3a3.68 3.68 0 0 0-4.1 1.17 4.5 4.5 0 0 0-.64 4.31.79.79 0 0 1-.54.94 2.1 2.1 0 0 1-1.19 0 18.45 18.45 0 0 1-8.69-4.74c-.35-.34-.8.34-.76.83a5.25 5.25 0 0 0 2.04 3.82 1.07 1.07 0 1 1-1.33 1.66 9.7 9.7 0 0 0 3.42 3.66.941.941 0 0 1-.85 1.68c0 .65.78.93 1.4 1.11s1.34.82 1 1.34a1.09 1.09 0 0 1-.5.31z" fill="#13161b"/></svg>